<?xml version="1.0" encoding="UTF-8"?>
<!DOCTYPE svg PUBLIC "-//W3C//DTD SVG 1.1//EN" "http://www.w3.org/Graphics/SVG/1.1/DTD/svg11.dtd">
<!-- Creator: CorelDRAW -->
<svg xmlns="http://www.w3.org/2000/svg" xml:space="preserve" width="0.392024in" height="0.354169in" style="shape-rendering:geometricPrecision; text-rendering:geometricPrecision; image-rendering:optimizeQuality; fill-rule:evenodd; clip-rule:evenodd"
viewBox="0 0 0.121348 0.10963"
 xmlns:xlink="http://www.w3.org/1999/xlink">
 <defs>
  <style type="text/css">
   <![CDATA[
    .fil2 {fill:#00448B;fill-rule:nonzero}
    .fil1 {fill:#0B826C;fill-rule:nonzero}
    .fil0 {fill:#E20032;fill-rule:nonzero}
   ]]>
  </style>
 </defs>
 <g id="Layer_x0020_1">
  <metadata id="CorelCorpID_0Corel-Layer"/>
  <g id="_288493280">
   <g>
    <path id="_284366672" class="fil0" d="M0.0671815 0.0335902l-0.00644919 0 0 0 -3.53414e-005 -0.00139903 -0.000104805 -0.00138075 -0.000173051 -0.00135882 -0.00023764 -0.00133566 -0.000303448 -0.00131129 -0.0003656 -0.00128569 -0.000426534 -0.00126132 -0.00048503 -0.00123207 -0.000543526 -0.00120039 -0.000598366 -0.00116992 -0.000653206 -0.00113458 -0.000708046 -0.00110289 -0.000755574 -0.00106512 -0.000806758 -0.0010249 -0.000853068 -0.000987121 -0.000899377 -0.000942031 -0.000942031 -0.000899377 -0.000987121 -0.000853068 -0.0010249 -0.000806758 -0.00106512 -0.000755574 -0.00110289 -0.000708046 -0.00113458 -0.000653206 -0.00116992 -0.000598366 -0.00120039 -0.000543526 -0.00123207 -0.00048503 -0.00126132 -0.000426534 -0.00128569 -0.0003656 -0.00131129 -0.000303448 -0.00133566 -0.00023764 -0.00135882 -0.000173051 -0.00138075 -0.000104805 -0.00139903 -3.53414e-005 0 -0.00644919 0.00172563 4.26534e-005 0.00170492 0.000131616 0.00168054 0.000212048 0.00165495 0.000296136 0.0016257 0.000374131 0.00159524 0.000453345 0.00156111 0.000528902 0.00152699 0.000602022 0.00148799 0.000672705 0.00145022 0.000742169 0.00140756 0.000809196 0.00136125 0.000873785 0.00131616 0.000935937 0.00126863 0.000996871 0.00121867 0.00105537 0.00116627 0.00111143 0.00111143 0.00116627 0.00105537 0.00121867 0.000996871 0.00126863 0.000935937 0.00131616 0.000873785 0.00136125 0.000809196 0.00140756 0.000742169 0.00145022 0.000672705 0.00148799 0.000602022 0.00152699 0.000528902 0.00156111 0.000453345 0.00159524 0.000374131 0.0016257 0.000296136 0.00165495 0.000212048 0.00168054 0.000131616 0.00170492 4.26534e-005 0.00172563 0 0zm-0.0335902 0.0335914l0 -0.00644919 0 0 0.00139903 -3.53414e-005 0.00138075 -0.000104805 0.00135882 -0.000173051 0.00133566 -0.00023764 0.00131129 -0.000303448 0.00128569 -0.0003656 0.00126132 -0.000426534 0.00123207 -0.00048503 0.00120039 -0.000543526 0.00116992 -0.000598366 0.00113458 -0.000653206 0.00110289 -0.000708046 0.00106512 -0.000755574 0.0010249 -0.000806758 0.000987121 -0.000853068 0.000940812 -0.000898158 0.000900596 -0.000944468 0.000853068 -0.000985903 0.000806758 -0.0010249 0.000755574 -0.00106512 0.000708046 -0.00110168 0.000653206 -0.00113702 0.000598366 -0.0011687 0.000543526 -0.00120161 0.00048503 -0.00123207 0.000426534 -0.0012601 0.0003656 -0.00128691 0.000303448 -0.00131129 0.00023764 -0.00133566 0.000173051 -0.00135882 0.000104805 -0.00138075 3.53414e-005 -0.00139903 0.00644919 0 -4.26534e-005 0.00172563 -0.000131616 0.00170492 -0.000212048 0.00168054 -0.000296136 0.00165495 -0.000374131 0.0016257 -0.000453345 0.00159646 -0.000528902 0.00156233 -0.000602022 0.00152455 -0.000672705 0.00148921 -0.000742169 0.001449 -0.000809196 0.00140756 -0.000873785 0.00136247 -0.000935937 0.00131616 -0.000996871 0.00126863 -0.00105537 0.00121745 -0.00111021 0.00116627 -0.00116748 0.00111264 -0.00121867 0.00105537 -0.00126863 0.000996871 -0.00131616 0.000935937 -0.00136125 0.000873785 -0.00140756 0.000809196 -0.00145022 0.000742169 -0.00148799 0.000672705 -0.00152699 0.000602022 -0.00156111 0.000528902 -0.00159524 0.000453345 -0.0016257 0.000374131 -0.00165495 0.000296136 -0.00168054 0.000212048 -0.00170492 0.000131616 -0.00172563 4.26534e-005 0 0zm-0.0335914 -0.0335914l0.00644919 0 0 0 3.53414e-005 0.00139903 0.000104805 0.00138075 0.000173051 0.00135882 0.00023764 0.00133566 0.000303448 0.00131129 0.0003656 0.00128691 0.000426534 0.0012601 0.00048503 0.00123207 0.000543526 0.00120161 0.000598366 0.0011687 0.000653206 0.00113702 0.000708046 0.00110168 0.000755574 0.00106512 0.000806758 0.0010249 0.000853068 0.000985903 0.000899377 0.000943249 0.000943249 0.000899377 0.000985903 0.000853068 0.0010249 0.000806758 0.00106512 0.000755574 0.00110168 0.000708046 0.00113702 0.000653206 0.0011687 0.000598366 0.00120161 0.000543526 0.00123207 0.00048503 0.0012601 0.000426534 0.00128691 0.0003656 0.00131129 0.000303448 0.00133566 0.00023764 0.00135882 0.000173051 0.00138075 0.000104805 0.00139903 3.53414e-005 0 0.00644919 -0.00172563 -4.26534e-005 -0.00170492 -0.000131616 -0.00168054 -0.000212048 -0.00165495 -0.000296136 -0.0016257 -0.000374131 -0.00159646 -0.000453345 -0.00156233 -0.000528902 -0.00152455 -0.000602022 -0.00148921 -0.000672705 -0.001449 -0.000742169 -0.00140756 -0.000809196 -0.00136247 -0.000873785 -0.00131616 -0.000935937 -0.00126863 -0.000996871 -0.00121745 -0.00105537 -0.00116748 -0.00111143 -0.00111143 -0.00116748 -0.00105537 -0.00121745 -0.000996871 -0.00126863 -0.000935937 -0.00131616 -0.000873785 -0.00136247 -0.000809196 -0.00140756 -0.000742169 -0.001449 -0.000672705 -0.00148921 -0.000602022 -0.00152455 -0.000528902 -0.00156233 -0.000453345 -0.00159646 -0.000374131 -0.0016257 -0.000296136 -0.00165495 -0.000212048 -0.00168054 -0.000131616 -0.00170492 -4.26534e-005 -0.00172563 0 0zm0.0335914 -0.0335902l0 0.00644919 0 0 -0.00139903 3.53414e-005 -0.00138075 0.000104805 -0.00135882 0.000173051 -0.00133566 0.00023764 -0.00131129 0.000303448 -0.00128691 0.0003656 -0.0012601 0.000426534 -0.00123207 0.00048503 -0.00120161 0.000543526 -0.0011687 0.000598366 -0.00113702 0.000653206 -0.00110168 0.000708046 -0.00106512 0.000755574 -0.0010249 0.000806758 -0.000985903 0.000853068 -0.000944468 0.000900596 -0.000898158 0.000940812 -0.000853068 0.000987121 -0.000806758 0.0010249 -0.000755574 0.00106512 -0.000708046 0.00110289 -0.000653206 0.00113458 -0.000598366 0.00116992 -0.000543526 0.00120039 -0.00048503 0.00123207 -0.000426534 0.00126132 -0.0003656 0.00128569 -0.000303448 0.00131129 -0.00023764 0.00133566 -0.000173051 0.00135882 -0.000104805 0.00138075 -3.53414e-005 0.00139903 -0.00644919 0 4.26534e-005 -0.00172563 0.000131616 -0.00170492 0.000212048 -0.00168054 0.000296136 -0.00165495 0.000374131 -0.0016257 0.000453345 -0.00159524 0.000528902 -0.00156111 0.000602022 -0.00152699 0.000672705 -0.00148799 0.000742169 -0.00145022 0.000809196 -0.00140756 0.000873785 -0.00136125 0.000935937 -0.00131616 0.000996871 -0.00126863 0.00105537 -0.00121867 0.00111264 -0.00116748 0.00116627 -0.00111021 0.00121745 -0.00105537 0.00126863 -0.000996871 0.00131616 -0.000935937 0.00136247 -0.000873785 0.00140756 -0.000809196 0.001449 -0.000742169 0.00148921 -0.000672705 0.00152455 -0.000602022 0.00156233 -0.000528902 0.00159646 -0.000453345 0.0016257 -0.000374131 0.00165495 -0.000296136 0.00168054 -0.000212048 0.00170492 -0.000131616 0.00172563 -4.26534e-005 0 0z"/>
   </g>
   <g>
    <path class="fil1" d="M0.121348 0.0335902l-0.00644919 0 0 0 -3.53414e-005 -0.00139903 -0.000104805 -0.00138075 -0.000173051 -0.00135882 -0.00023764 -0.00133566 -0.000303448 -0.00131129 -0.0003656 -0.00128569 -0.000426534 -0.00126132 -0.00048503 -0.00123207 -0.000543526 -0.00120039 -0.000598366 -0.00116992 -0.000653206 -0.00113458 -0.000708046 -0.00110289 -0.000755574 -0.00106512 -0.000806758 -0.0010249 -0.000853068 -0.000987121 -0.000899377 -0.000942031 -0.000942031 -0.000899377 -0.000987121 -0.000853068 -0.0010249 -0.000806758 -0.00106512 -0.000755574 -0.00110289 -0.000708046 -0.00113458 -0.000653206 -0.00116992 -0.000598366 -0.00120039 -0.000543526 -0.00123207 -0.00048503 -0.00126132 -0.000426534 -0.00128569 -0.0003656 -0.00131129 -0.000303448 -0.00133566 -0.00023764 -0.00135882 -0.000173051 -0.00138075 -0.000104805 -0.00139903 -3.53414e-005 0 -0.00644919 0.00172563 4.26534e-005 0.00170492 0.000131616 0.00168054 0.000212048 0.00165495 0.000296136 0.0016257 0.000374131 0.00159524 0.000453345 0.00156111 0.000528902 0.00152699 0.000602022 0.00148799 0.000672705 0.00145022 0.000742169 0.00140756 0.000809196 0.00136125 0.000873785 0.00131616 0.000935937 0.00126863 0.000996871 0.00121867 0.00105537 0.00116627 0.00111143 0.00111143 0.00116627 0.00105537 0.00121867 0.000996871 0.00126863 0.000935937 0.00131616 0.000873785 0.00136125 0.000809196 0.00140756 0.000742169 0.00145022 0.000672705 0.00148799 0.000602022 0.00152699 0.000528902 0.00156111 0.000453345 0.00159524 0.000374131 0.0016257 0.000296136 0.00165495 0.000212048 0.00168054 0.000131616 0.00170492 4.26534e-005 0.00172563 0 0zm-0.0335902 0.0335914l0 -0.00644919 0 0 0.00139903 -3.53414e-005 0.00138075 -0.000104805 0.00135882 -0.000173051 0.00133566 -0.00023764 0.00131129 -0.000303448 0.00128569 -0.0003656 0.00126132 -0.000426534 0.00123207 -0.00048503 0.00120039 -0.000543526 0.00116992 -0.000598366 0.00113458 -0.000653206 0.00110289 -0.000708046 0.00106512 -0.000755574 0.0010249 -0.000806758 0.000987121 -0.000853068 0.000940812 -0.000898158 0.000900596 -0.000944468 0.000853068 -0.000985903 0.000806758 -0.0010249 0.000755574 -0.00106512 0.000708046 -0.00110168 0.000653206 -0.00113702 0.000598366 -0.0011687 0.000543526 -0.00120161 0.00048503 -0.00123207 0.000426534 -0.0012601 0.0003656 -0.00128691 0.000303448 -0.00131129 0.00023764 -0.00133566 0.000173051 -0.00135882 0.000104805 -0.00138075 3.53414e-005 -0.00139903 0.00644919 0 -4.26534e-005 0.00172563 -0.000131616 0.00170492 -0.000212048 0.00168054 -0.000296136 0.00165495 -0.000374131 0.0016257 -0.000453345 0.00159646 -0.000528902 0.00156233 -0.000602022 0.00152455 -0.000672705 0.00148921 -0.000742169 0.001449 -0.000809196 0.00140756 -0.000873785 0.00136247 -0.000935937 0.00131616 -0.000996871 0.00126863 -0.00105537 0.00121745 -0.00111021 0.00116627 -0.00116748 0.00111264 -0.00121867 0.00105537 -0.00126863 0.000996871 -0.00131616 0.000935937 -0.00136125 0.000873785 -0.00140756 0.000809196 -0.00145022 0.000742169 -0.00148799 0.000672705 -0.00152699 0.000602022 -0.00156111 0.000528902 -0.00159524 0.000453345 -0.0016257 0.000374131 -0.00165495 0.000296136 -0.00168054 0.000212048 -0.00170492 0.000131616 -0.00172563 4.26534e-005 0 0zm-0.0335914 -0.0335914l0.00644919 0 0 0 3.53414e-005 0.00139903 0.000104805 0.00138075 0.000173051 0.00135882 0.00023764 0.00133566 0.000303448 0.00131129 0.0003656 0.00128691 0.000426534 0.0012601 0.00048503 0.00123207 0.000543526 0.00120161 0.000598366 0.0011687 0.000653206 0.00113702 0.000708046 0.00110168 0.000755574 0.00106512 0.000806758 0.0010249 0.000853068 0.000985903 0.000899377 0.000943249 0.000943249 0.000899377 0.000985903 0.000853068 0.0010249 0.000806758 0.00106512 0.000755574 0.00110168 0.000708046 0.00113702 0.000653206 0.0011687 0.000598366 0.00120161 0.000543526 0.00123207 0.00048503 0.0012601 0.000426534 0.00128691 0.0003656 0.00131129 0.000303448 0.00133566 0.00023764 0.00135882 0.000173051 0.00138075 0.000104805 0.00139903 3.53414e-005 0 0.00644919 -0.00172563 -4.26534e-005 -0.00170492 -0.000131616 -0.00168054 -0.000212048 -0.00165495 -0.000296136 -0.0016257 -0.000374131 -0.00159646 -0.000453345 -0.00156233 -0.000528902 -0.00152455 -0.000602022 -0.00148921 -0.000672705 -0.001449 -0.000742169 -0.00140756 -0.000809196 -0.00136247 -0.000873785 -0.00131616 -0.000935937 -0.00126863 -0.000996871 -0.00121745 -0.00105537 -0.00116748 -0.00111143 -0.00111143 -0.00116748 -0.00105537 -0.00121745 -0.000996871 -0.00126863 -0.000935937 -0.00131616 -0.000873785 -0.00136247 -0.000809196 -0.00140756 -0.000742169 -0.001449 -0.000672705 -0.00148921 -0.000602022 -0.00152455 -0.000528902 -0.00156233 -0.000453345 -0.00159646 -0.000374131 -0.0016257 -0.000296136 -0.00165495 -0.000212048 -0.00168054 -0.000131616 -0.00170492 -4.26534e-005 -0.00172563 0 0zm0.0335914 -0.0335902l0 0.00644919 0 0 -0.00139903 3.53414e-005 -0.00138075 0.000104805 -0.00135882 0.000173051 -0.00133566 0.00023764 -0.00131129 0.000303448 -0.00128691 0.0003656 -0.0012601 0.000426534 -0.00123207 0.00048503 -0.00120161 0.000543526 -0.0011687 0.000598366 -0.00113702 0.000653206 -0.00110168 0.000708046 -0.00106512 0.000755574 -0.0010249 0.000806758 -0.000985903 0.000853068 -0.000944468 0.000900596 -0.000898158 0.000940812 -0.000853068 0.000987121 -0.000806758 0.0010249 -0.000755574 0.00106512 -0.000708046 0.00110289 -0.000653206 0.00113458 -0.000598366 0.00116992 -0.000543526 0.00120039 -0.00048503 0.00123207 -0.000426534 0.00126132 -0.0003656 0.00128569 -0.000303448 0.00131129 -0.00023764 0.00133566 -0.000173051 0.00135882 -0.000104805 0.00138075 -3.53414e-005 0.00139903 -0.00644919 0 4.26534e-005 -0.00172563 0.000131616 -0.00170492 0.000212048 -0.00168054 0.000296136 -0.00165495 0.000374131 -0.0016257 0.000453345 -0.00159524 0.000528902 -0.00156111 0.000602022 -0.00152699 0.000672705 -0.00148799 0.000742169 -0.00145022 0.000809196 -0.00140756 0.000873785 -0.00136125 0.000935937 -0.00131616 0.000996871 -0.00126863 0.00105537 -0.00121867 0.00111264 -0.00116748 0.00116627 -0.00111021 0.00121745 -0.00105537 0.00126863 -0.000996871 0.00131616 -0.000935937 0.00136247 -0.000873785 0.00140756 -0.000809196 0.001449 -0.000742169 0.00148921 -0.000672705 0.00152455 -0.000602022 0.00156233 -0.000528902 0.00159646 -0.000453345 0.0016257 -0.000374131 0.00165495 -0.000296136 0.00168054 -0.000212048 0.00170492 -0.000131616 0.00172563 -4.26534e-005 0 0z"/>
   </g>
   <g>
    <path class="fil2" d="M0.0927675 0.0760388l-0.00644919 0 0 0 -3.53414e-005 -0.00139903 -0.000104805 -0.00138075 -0.000173051 -0.00135882 -0.00023764 -0.00133566 -0.000303448 -0.00131129 -0.0003656 -0.00128691 -0.000426534 -0.0012601 -0.00048503 -0.00123207 -0.000543526 -0.00120161 -0.000598366 -0.0011687 -0.000653206 -0.00113702 -0.000708046 -0.00110168 -0.000755574 -0.00106512 -0.000806758 -0.0010249 -0.000853068 -0.000985903 -0.000899377 -0.000943249 -0.000943249 -0.000899377 -0.000985903 -0.000853068 -0.0010249 -0.000806758 -0.00106512 -0.000755574 -0.00110168 -0.000708046 -0.00113702 -0.000653206 -0.0011687 -0.000598366 -0.00120161 -0.000543526 -0.00123207 -0.00048503 -0.0012601 -0.000426534 -0.00128691 -0.0003656 -0.00131129 -0.000303448 -0.00133566 -0.00023764 -0.00135882 -0.000173051 -0.00138075 -0.000104805 -0.00139903 -3.53414e-005 0 -0.00644919 0.00172563 4.26534e-005 0.00170492 0.000131616 0.00168054 0.000212048 0.00165495 0.000296136 0.0016257 0.000374131 0.00159646 0.000453345 0.00156233 0.000528902 0.00152455 0.000602022 0.00148921 0.000672705 0.001449 0.000742169 0.00140756 0.000809196 0.00136247 0.000873785 0.00131616 0.000935937 0.00126863 0.000996871 0.00121745 0.00105537 0.00116748 0.00111143 0.00111143 0.00116748 0.00105537 0.00121745 0.000996871 0.00126863 0.000935937 0.00131616 0.000873785 0.00136247 0.000809196 0.00140756 0.000742169 0.001449 0.000672705 0.00148921 0.000602022 0.00152455 0.000528902 0.00156233 0.000453345 0.00159646 0.000374131 0.0016257 0.000296136 0.00165495 0.000212048 0.00168054 0.000131616 0.00170492 4.26534e-005 0.00172563 0 0zm-0.0335914 0.0335914l0 -0.00644919 0 0 0.00139903 -3.53414e-005 0.00138075 -0.000104805 0.00135882 -0.000173051 0.00133566 -0.00023764 0.00131129 -0.000303448 0.00128691 -0.0003656 0.0012601 -0.000426534 0.00123207 -0.00048503 0.00120161 -0.000543526 0.0011687 -0.000598366 0.00113702 -0.000653206 0.00110168 -0.000708046 0.00106512 -0.000755574 0.0010249 -0.000806758 0.000985903 -0.000853068 0.000943249 -0.000899377 0.000899377 -0.000943249 0.000853068 -0.000985903 0.000806758 -0.0010249 0.000755574 -0.00106512 0.000708046 -0.00110168 0.000653206 -0.00113702 0.000598366 -0.0011687 0.000543526 -0.00120161 0.00048503 -0.00123207 0.000426534 -0.0012601 0.0003656 -0.00128691 0.000303448 -0.00131129 0.00023764 -0.00133566 0.000173051 -0.00135882 0.000104805 -0.00138075 3.53414e-005 -0.00139903 0.00644919 0 -4.26534e-005 0.00172563 -0.000131616 0.00170492 -0.000212048 0.00168054 -0.000296136 0.00165495 -0.000374131 0.0016257 -0.000453345 0.00159646 -0.000528902 0.00156233 -0.000602022 0.00152455 -0.000672705 0.00148921 -0.000742169 0.001449 -0.000809196 0.00140756 -0.000873785 0.00136247 -0.000935937 0.00131616 -0.000996871 0.00126863 -0.00105537 0.00121745 -0.00111143 0.00116748 -0.00116748 0.00111143 -0.00121745 0.00105537 -0.00126863 0.000996871 -0.00131616 0.000935937 -0.00136247 0.000873785 -0.00140756 0.000809196 -0.001449 0.000742169 -0.00148921 0.000672705 -0.00152455 0.000602022 -0.00156233 0.000528902 -0.00159646 0.000453345 -0.0016257 0.000374131 -0.00165495 0.000296136 -0.00168054 0.000212048 -0.00170492 0.000131616 -0.00172563 4.26534e-005 0 0zm-0.0335902 -0.0335914l0.00644919 0 0 0 3.53414e-005 0.00139903 0.000104805 0.00138075 0.000173051 0.00135882 0.00023764 0.00133566 0.000303448 0.00131129 0.0003656 0.00128691 0.000426534 0.0012601 0.00048503 0.00123207 0.000543526 0.00120161 0.000598366 0.0011687 0.000653206 0.00113702 0.000708046 0.00110168 0.000755574 0.00106512 0.000806758 0.0010249 0.000853068 0.000985903 0.000900596 0.000944468 0.000940812 0.000898158 0.000987121 0.000853068 0.0010249 0.000806758 0.00106512 0.000755574 0.00110289 0.000708046 0.00113458 0.000653206 0.00116992 0.000598366 0.00120039 0.000543526 0.00123207 0.00048503 0.00126132 0.000426534 0.00128569 0.0003656 0.00131129 0.000303448 0.00133566 0.00023764 0.00135882 0.000173051 0.00138075 0.000104805 0.00139903 3.53414e-005 0 0.00644919 -0.00172563 -4.26534e-005 -0.00170492 -0.000131616 -0.00168054 -0.000212048 -0.00165495 -0.000296136 -0.0016257 -0.000374131 -0.00159524 -0.000453345 -0.00156111 -0.000528902 -0.00152699 -0.000602022 -0.00148799 -0.000672705 -0.00145022 -0.000742169 -0.00140756 -0.000809196 -0.00136125 -0.000873785 -0.00131616 -0.000935937 -0.00126863 -0.000996871 -0.00121867 -0.00105537 -0.00116748 -0.00111264 -0.00111021 -0.00116627 -0.00105537 -0.00121745 -0.000996871 -0.00126863 -0.000935937 -0.00131616 -0.000873785 -0.00136247 -0.000809196 -0.00140756 -0.000742169 -0.001449 -0.000672705 -0.00148921 -0.000602022 -0.00152455 -0.000528902 -0.00156233 -0.000453345 -0.00159646 -0.000374131 -0.0016257 -0.000296136 -0.00165495 -0.000212048 -0.00168054 -0.000131616 -0.00170492 -4.26534e-005 -0.00172563 0 0zm0.0335902 -0.0335914l0 0.00644919 0 0 -0.00139903 3.53414e-005 -0.00138075 0.000104805 -0.00135882 0.000173051 -0.00133566 0.00023764 -0.00131129 0.000303448 -0.00128569 0.0003656 -0.00126132 0.000426534 -0.00123207 0.00048503 -0.00120039 0.000543526 -0.00116992 0.000598366 -0.00113458 0.000653206 -0.00110289 0.000708046 -0.00106512 0.000755574 -0.0010249 0.000806758 -0.000987121 0.000853068 -0.000940812 0.000898158 -0.000900596 0.000944468 -0.000853068 0.000985903 -0.000806758 0.0010249 -0.000755574 0.00106512 -0.000708046 0.00110168 -0.000653206 0.00113702 -0.000598366 0.0011687 -0.000543526 0.00120161 -0.00048503 0.00123207 -0.000426534 0.0012601 -0.0003656 0.00128691 -0.000303448 0.00131129 -0.00023764 0.00133566 -0.000173051 0.00135882 -0.000104805 0.00138075 -3.53414e-005 0.00139903 -0.00644919 0 4.26534e-005 -0.00172563 0.000131616 -0.00170492 0.000212048 -0.00168054 0.000296136 -0.00165495 0.000374131 -0.0016257 0.000453345 -0.00159646 0.000528902 -0.00156233 0.000602022 -0.00152455 0.000672705 -0.00148921 0.000742169 -0.001449 0.000809196 -0.00140756 0.000873785 -0.00136247 0.000935937 -0.00131616 0.000996871 -0.00126863 0.00105537 -0.00121745 0.00111021 -0.00116627 0.00116748 -0.00111264 0.00121867 -0.00105537 0.00126863 -0.000996871 0.00131616 -0.000935937 0.00136125 -0.000873785 0.00140756 -0.000809196 0.00145022 -0.000742169 0.00148799 -0.000672705 0.00152699 -0.000602022 0.00156111 -0.000528902 0.00159524 -0.000453345 0.0016257 -0.000374131 0.00165495 -0.000296136 0.00168054 -0.000212048 0.00170492 -0.000131616 0.00172563 -4.26534e-005 0 0z"/>
   </g>
  </g>
 </g>
</svg>
