<?xml version="1.0" encoding="UTF-8"?>
<!DOCTYPE svg PUBLIC "-//W3C//DTD SVG 1.1//EN" "http://www.w3.org/Graphics/SVG/1.1/DTD/svg11.dtd">
<!-- Creator: CorelDRAW 2019 (64-Bit) -->
<svg xmlns="http://www.w3.org/2000/svg" xml:space="preserve" width="0.385331in" height="0.347476in" version="1.1" style="shape-rendering:geometricPrecision; text-rendering:geometricPrecision; image-rendering:optimizeQuality; fill-rule:evenodd; clip-rule:evenodd"
viewBox="0 0 30.06 27.11"
 xmlns:xlink="http://www.w3.org/1999/xlink">
 <defs>
  <style type="text/css">
   <![CDATA[
    .fil2 {fill:#33CC66}
    .fil3 {fill:#6699FF}
    .fil0 {fill:#CC3300}
    .fil1 {fill:black;fill-rule:nonzero}
   ]]>
  </style>
 </defs>
 <g id="Layer_x0020_1">
  <metadata id="CorelCorpID_0Corel-Layer"/>
  <g id="_2318692340208">
   <g>
    <path class="fil0" d="M8.21 0.55c4.23,0 7.65,3.43 7.65,7.65 0,4.23 -3.43,7.65 -7.65,7.65 -4.23,0 -7.65,-3.43 -7.65,-7.65 0,-4.23 3.43,-7.65 7.65,-7.65z"/>
    <path id="1" class="fil1" d="M16.41 8.2l-1.1 0 0 0 -0.01 -0.37 -0.03 -0.36 -0.04 -0.36 -0.06 -0.35 -0.08 -0.34 -0.1 -0.34 -0.11 -0.33 -0.13 -0.32 -0.14 -0.31 -0.16 -0.31 -0.17 -0.3 -0.19 -0.29 -0.2 -0.28 -0.21 -0.27 -0.22 -0.26 -0.24 -0.25 -0.25 -0.24 -0.26 -0.22 -0.27 -0.21 -0.28 -0.2 -0.29 -0.19 -0.3 -0.17 -0.31 -0.16 -0.31 -0.14 -0.32 -0.13 -0.33 -0.11 -0.34 -0.1 -0.34 -0.08 -0.35 -0.06 -0.36 -0.04 -0.36 -0.03 -0.37 -0.01 0 -1.1 0.42 0.01 0.42 0.03 0.41 0.05 0.4 0.07 0.4 0.09 0.39 0.11 0.38 0.13 0.37 0.15 0.36 0.16 0.35 0.18 0.34 0.2 0.33 0.21 0.32 0.23 0.31 0.24 0.3 0.26 0.28 0.27 0.27 0.28 0.26 0.3 0.24 0.31 0.23 0.32 0.21 0.33 0.2 0.34 0.18 0.35 0.16 0.36 0.15 0.37 0.13 0.38 0.11 0.39 0.09 0.4 0.07 0.4 0.05 0.41 0.03 0.42 0.01 0.42 0 0zm-8.2 8.21l0 -1.1 0 0 0.37 -0.01 0.36 -0.03 0.36 -0.04 0.35 -0.06 0.34 -0.08 0.34 -0.1 0.33 -0.11 0.32 -0.13 0.31 -0.14 0.31 -0.16 0.3 -0.17 0.29 -0.19 0.28 -0.2 0.27 -0.21 0.26 -0.22 0.25 -0.23 0.24 -0.25 0.22 -0.26 0.21 -0.27 0.2 -0.28 0.18 -0.29 0.17 -0.3 0.16 -0.31 0.14 -0.31 0.13 -0.32 0.11 -0.33 0.1 -0.34 0.08 -0.34 0.06 -0.35 0.04 -0.36 0.03 -0.36 0.01 -0.37 1.1 0 -0.01 0.42 -0.03 0.42 -0.05 0.41 -0.07 0.4 -0.09 0.4 -0.11 0.39 -0.13 0.38 -0.15 0.37 -0.16 0.36 -0.18 0.35 -0.2 0.34 -0.21 0.33 -0.23 0.32 -0.24 0.31 -0.26 0.3 -0.27 0.28 -0.28 0.27 -0.3 0.26 -0.31 0.24 -0.32 0.23 -0.33 0.21 -0.34 0.2 -0.35 0.18 -0.36 0.16 -0.37 0.15 -0.38 0.13 -0.39 0.11 -0.4 0.09 -0.4 0.07 -0.41 0.05 -0.42 0.03 -0.42 0.01 0 0zm-8.21 -8.21l1.1 0 0 0 0.01 0.37 0.03 0.36 0.04 0.36 0.06 0.35 0.08 0.34 0.1 0.34 0.11 0.33 0.13 0.32 0.14 0.31 0.16 0.31 0.17 0.3 0.18 0.29 0.2 0.28 0.21 0.27 0.22 0.26 0.24 0.25 0.25 0.24 0.26 0.22 0.27 0.21 0.28 0.2 0.29 0.18 0.3 0.17 0.31 0.16 0.31 0.14 0.32 0.13 0.33 0.11 0.34 0.1 0.34 0.08 0.35 0.06 0.36 0.04 0.36 0.03 0.37 0.01 0 1.1 -0.42 -0.01 -0.42 -0.03 -0.41 -0.05 -0.4 -0.07 -0.4 -0.09 -0.39 -0.11 -0.38 -0.13 -0.37 -0.15 -0.36 -0.16 -0.35 -0.18 -0.34 -0.2 -0.33 -0.21 -0.32 -0.23 -0.31 -0.24 -0.3 -0.26 -0.29 -0.27 -0.27 -0.29 -0.26 -0.3 -0.24 -0.31 -0.23 -0.32 -0.21 -0.33 -0.2 -0.34 -0.18 -0.35 -0.16 -0.36 -0.15 -0.37 -0.13 -0.38 -0.11 -0.39 -0.09 -0.4 -0.07 -0.4 -0.05 -0.41 -0.03 -0.42 -0.01 -0.42 0 0zm8.21 -8.2l0 1.1 0 0 -0.37 0.01 -0.36 0.03 -0.36 0.04 -0.35 0.06 -0.34 0.08 -0.34 0.1 -0.33 0.11 -0.32 0.13 -0.31 0.14 -0.31 0.16 -0.3 0.17 -0.29 0.18 -0.28 0.2 -0.27 0.21 -0.26 0.22 -0.25 0.24 -0.23 0.25 -0.22 0.26 -0.21 0.27 -0.2 0.28 -0.19 0.29 -0.17 0.3 -0.16 0.31 -0.14 0.31 -0.13 0.32 -0.11 0.33 -0.1 0.34 -0.08 0.34 -0.06 0.35 -0.04 0.36 -0.03 0.36 -0.01 0.37 -1.1 0 0.01 -0.42 0.03 -0.42 0.05 -0.41 0.07 -0.4 0.09 -0.4 0.11 -0.39 0.13 -0.38 0.15 -0.37 0.16 -0.36 0.18 -0.35 0.2 -0.34 0.21 -0.33 0.23 -0.32 0.24 -0.31 0.26 -0.3 0.27 -0.28 0.28 -0.27 0.3 -0.26 0.31 -0.24 0.32 -0.23 0.33 -0.21 0.34 -0.2 0.35 -0.18 0.36 -0.16 0.37 -0.15 0.38 -0.13 0.39 -0.11 0.4 -0.09 0.4 -0.07 0.41 -0.05 0.42 -0.03 0.42 -0.01 0 0z"/>
   </g>
   <g>
    <path class="fil2" d="M21.86 0.55c4.23,0 7.65,3.43 7.65,7.65 0,4.23 -3.43,7.65 -7.65,7.65 -4.23,0 -7.65,-3.43 -7.65,-7.65 0,-4.23 3.43,-7.65 7.65,-7.65z"/>
    <path id="1" class="fil1" d="M30.06 8.2l-1.1 0 0 0 -0.01 -0.37 -0.03 -0.36 -0.04 -0.36 -0.06 -0.35 -0.08 -0.34 -0.1 -0.34 -0.11 -0.33 -0.13 -0.32 -0.14 -0.31 -0.16 -0.31 -0.17 -0.3 -0.19 -0.29 -0.2 -0.28 -0.21 -0.27 -0.22 -0.26 -0.24 -0.25 -0.25 -0.24 -0.26 -0.22 -0.27 -0.21 -0.28 -0.2 -0.29 -0.19 -0.3 -0.17 -0.31 -0.16 -0.31 -0.14 -0.32 -0.13 -0.33 -0.11 -0.34 -0.1 -0.34 -0.08 -0.35 -0.06 -0.36 -0.04 -0.36 -0.03 -0.37 -0.01 0 -1.1 0.42 0.01 0.42 0.03 0.41 0.05 0.4 0.07 0.4 0.09 0.39 0.11 0.38 0.13 0.37 0.15 0.36 0.16 0.35 0.18 0.34 0.2 0.33 0.21 0.32 0.23 0.31 0.24 0.3 0.26 0.28 0.27 0.27 0.28 0.26 0.3 0.24 0.31 0.23 0.32 0.21 0.33 0.2 0.34 0.18 0.35 0.16 0.36 0.15 0.37 0.13 0.38 0.11 0.39 0.09 0.4 0.07 0.4 0.05 0.41 0.03 0.42 0.01 0.42 0 0zm-8.2 8.21l0 -1.1 0 0 0.37 -0.01 0.36 -0.03 0.36 -0.04 0.35 -0.06 0.34 -0.08 0.34 -0.1 0.33 -0.11 0.32 -0.13 0.31 -0.14 0.31 -0.16 0.3 -0.17 0.29 -0.19 0.28 -0.2 0.27 -0.21 0.26 -0.22 0.25 -0.23 0.24 -0.25 0.22 -0.26 0.21 -0.27 0.2 -0.28 0.18 -0.29 0.17 -0.3 0.16 -0.31 0.14 -0.31 0.13 -0.32 0.11 -0.33 0.1 -0.34 0.08 -0.34 0.06 -0.35 0.04 -0.36 0.03 -0.36 0.01 -0.37 1.1 0 -0.01 0.42 -0.03 0.42 -0.05 0.41 -0.07 0.4 -0.09 0.4 -0.11 0.39 -0.13 0.38 -0.15 0.37 -0.16 0.36 -0.18 0.35 -0.2 0.34 -0.21 0.33 -0.23 0.32 -0.24 0.31 -0.26 0.3 -0.27 0.28 -0.28 0.27 -0.3 0.26 -0.31 0.24 -0.32 0.23 -0.33 0.21 -0.34 0.2 -0.35 0.18 -0.36 0.16 -0.37 0.15 -0.38 0.13 -0.39 0.11 -0.4 0.09 -0.4 0.07 -0.41 0.05 -0.42 0.03 -0.42 0.01 0 0zm-8.21 -8.21l1.1 0 0 0 0.01 0.37 0.03 0.36 0.04 0.36 0.06 0.35 0.08 0.34 0.1 0.34 0.11 0.33 0.13 0.32 0.14 0.31 0.16 0.31 0.17 0.3 0.18 0.29 0.2 0.28 0.21 0.27 0.22 0.26 0.24 0.25 0.25 0.24 0.26 0.22 0.27 0.21 0.28 0.2 0.29 0.18 0.3 0.17 0.31 0.16 0.31 0.14 0.32 0.13 0.33 0.11 0.34 0.1 0.34 0.08 0.35 0.06 0.36 0.04 0.36 0.03 0.37 0.01 0 1.1 -0.42 -0.01 -0.42 -0.03 -0.41 -0.05 -0.4 -0.07 -0.4 -0.09 -0.39 -0.11 -0.38 -0.13 -0.37 -0.15 -0.36 -0.16 -0.35 -0.18 -0.34 -0.2 -0.33 -0.21 -0.32 -0.23 -0.31 -0.24 -0.3 -0.26 -0.29 -0.27 -0.27 -0.29 -0.26 -0.3 -0.24 -0.31 -0.23 -0.32 -0.21 -0.33 -0.2 -0.34 -0.18 -0.35 -0.16 -0.36 -0.15 -0.37 -0.13 -0.38 -0.11 -0.39 -0.09 -0.4 -0.07 -0.4 -0.05 -0.41 -0.03 -0.42 -0.01 -0.42 0 0zm8.21 -8.2l0 1.1 0 0 -0.37 0.01 -0.36 0.03 -0.36 0.04 -0.35 0.06 -0.34 0.08 -0.34 0.1 -0.33 0.11 -0.32 0.13 -0.31 0.14 -0.31 0.16 -0.3 0.17 -0.29 0.18 -0.28 0.2 -0.27 0.21 -0.26 0.22 -0.25 0.24 -0.23 0.25 -0.22 0.26 -0.21 0.27 -0.2 0.28 -0.19 0.29 -0.17 0.3 -0.16 0.31 -0.14 0.31 -0.13 0.32 -0.11 0.33 -0.1 0.34 -0.08 0.34 -0.06 0.35 -0.04 0.36 -0.03 0.36 -0.01 0.37 -1.1 0 0.01 -0.42 0.03 -0.42 0.05 -0.41 0.07 -0.4 0.09 -0.4 0.11 -0.39 0.13 -0.38 0.15 -0.37 0.16 -0.36 0.18 -0.35 0.2 -0.34 0.21 -0.33 0.23 -0.32 0.24 -0.31 0.26 -0.3 0.27 -0.28 0.28 -0.27 0.3 -0.26 0.31 -0.24 0.32 -0.23 0.33 -0.21 0.34 -0.2 0.35 -0.18 0.36 -0.16 0.37 -0.15 0.38 -0.13 0.39 -0.11 0.4 -0.09 0.4 -0.07 0.41 -0.05 0.42 -0.03 0.42 -0.01 0 0z"/>
   </g>
   <g>
    <path class="fil3" d="M14.65 11.25c4.23,0 7.65,3.43 7.65,7.65 0,4.23 -3.43,7.65 -7.65,7.65 -4.23,0 -7.65,-3.43 -7.65,-7.65 0,-4.23 3.43,-7.65 7.65,-7.65z"/>
    <path id="1" class="fil1" d="M22.86 18.9l-1.1 0 0 0 -0.01 -0.37 -0.03 -0.36 -0.04 -0.36 -0.06 -0.35 -0.08 -0.34 -0.1 -0.34 -0.11 -0.33 -0.13 -0.32 -0.14 -0.31 -0.16 -0.31 -0.17 -0.3 -0.18 -0.29 -0.2 -0.28 -0.21 -0.27 -0.22 -0.26 -0.24 -0.25 -0.25 -0.24 -0.26 -0.22 -0.27 -0.21 -0.28 -0.2 -0.29 -0.18 -0.3 -0.17 -0.31 -0.16 -0.31 -0.14 -0.32 -0.13 -0.33 -0.11 -0.34 -0.1 -0.34 -0.08 -0.35 -0.06 -0.36 -0.04 -0.36 -0.03 -0.37 -0.01 0 -1.1 0.42 0.01 0.42 0.03 0.41 0.05 0.4 0.07 0.4 0.09 0.39 0.11 0.38 0.13 0.37 0.15 0.36 0.16 0.35 0.18 0.34 0.2 0.33 0.21 0.32 0.23 0.31 0.24 0.3 0.26 0.29 0.27 0.27 0.29 0.26 0.3 0.24 0.31 0.23 0.32 0.21 0.33 0.2 0.34 0.18 0.35 0.16 0.36 0.15 0.37 0.13 0.38 0.11 0.39 0.09 0.4 0.07 0.4 0.05 0.41 0.03 0.42 0.01 0.42 0 0zm-8.21 8.21l0 -1.1 0 0 0.37 -0.01 0.36 -0.03 0.36 -0.04 0.35 -0.06 0.34 -0.08 0.34 -0.1 0.33 -0.11 0.32 -0.13 0.31 -0.14 0.31 -0.16 0.3 -0.17 0.29 -0.18 0.28 -0.2 0.27 -0.21 0.26 -0.22 0.25 -0.24 0.24 -0.25 0.22 -0.26 0.21 -0.27 0.2 -0.28 0.18 -0.29 0.17 -0.3 0.16 -0.31 0.14 -0.31 0.13 -0.32 0.11 -0.33 0.1 -0.34 0.08 -0.34 0.06 -0.35 0.04 -0.36 0.03 -0.36 0.01 -0.37 1.1 0 -0.01 0.42 -0.03 0.42 -0.05 0.41 -0.07 0.4 -0.09 0.4 -0.11 0.39 -0.13 0.38 -0.15 0.37 -0.16 0.36 -0.18 0.35 -0.2 0.34 -0.21 0.33 -0.23 0.32 -0.24 0.31 -0.26 0.3 -0.27 0.29 -0.29 0.27 -0.3 0.26 -0.31 0.24 -0.32 0.23 -0.33 0.21 -0.34 0.2 -0.35 0.18 -0.36 0.16 -0.37 0.15 -0.38 0.13 -0.39 0.11 -0.4 0.09 -0.4 0.07 -0.41 0.05 -0.42 0.03 -0.42 0.01 0 0zm-8.2 -8.21l1.1 0 0 0 0.01 0.37 0.03 0.36 0.04 0.36 0.06 0.35 0.08 0.34 0.1 0.34 0.11 0.33 0.13 0.32 0.14 0.31 0.16 0.31 0.17 0.3 0.18 0.29 0.2 0.28 0.21 0.27 0.22 0.26 0.24 0.25 0.25 0.23 0.26 0.22 0.27 0.21 0.28 0.2 0.29 0.19 0.3 0.17 0.31 0.16 0.31 0.14 0.32 0.13 0.33 0.11 0.34 0.1 0.34 0.08 0.35 0.06 0.36 0.04 0.36 0.03 0.37 0.01 0 1.1 -0.42 -0.01 -0.42 -0.03 -0.41 -0.05 -0.4 -0.07 -0.4 -0.09 -0.39 -0.11 -0.38 -0.13 -0.37 -0.15 -0.36 -0.16 -0.35 -0.18 -0.34 -0.2 -0.33 -0.21 -0.32 -0.23 -0.31 -0.24 -0.3 -0.26 -0.28 -0.27 -0.27 -0.28 -0.26 -0.3 -0.24 -0.31 -0.23 -0.32 -0.21 -0.33 -0.2 -0.34 -0.18 -0.35 -0.16 -0.36 -0.15 -0.37 -0.13 -0.38 -0.11 -0.39 -0.09 -0.4 -0.07 -0.4 -0.05 -0.41 -0.03 -0.42 -0.01 -0.42 0 0zm8.2 -8.21l0 1.1 0 0 -0.37 0.01 -0.36 0.03 -0.36 0.04 -0.35 0.06 -0.34 0.08 -0.34 0.1 -0.33 0.11 -0.32 0.13 -0.31 0.14 -0.31 0.16 -0.3 0.17 -0.29 0.19 -0.28 0.2 -0.27 0.21 -0.26 0.22 -0.25 0.23 -0.24 0.25 -0.22 0.26 -0.21 0.27 -0.2 0.28 -0.18 0.29 -0.17 0.3 -0.16 0.31 -0.14 0.31 -0.13 0.32 -0.11 0.33 -0.1 0.34 -0.08 0.34 -0.06 0.35 -0.04 0.36 -0.03 0.36 -0.01 0.37 -1.1 0 0.01 -0.42 0.03 -0.42 0.05 -0.41 0.07 -0.4 0.09 -0.4 0.11 -0.39 0.13 -0.38 0.15 -0.37 0.16 -0.36 0.18 -0.35 0.2 -0.34 0.21 -0.33 0.23 -0.32 0.24 -0.31 0.26 -0.3 0.27 -0.28 0.28 -0.27 0.3 -0.26 0.31 -0.24 0.32 -0.23 0.33 -0.21 0.34 -0.2 0.35 -0.18 0.36 -0.16 0.37 -0.15 0.38 -0.13 0.39 -0.11 0.4 -0.09 0.4 -0.07 0.41 -0.05 0.42 -0.03 0.42 -0.01 0 0z"/>
   </g>
  </g>
 </g>
</svg>
