<?xml version="1.0" encoding="UTF-8"?>
<!DOCTYPE svg PUBLIC "-//W3C//DTD SVG 1.1//EN" "http://www.w3.org/Graphics/SVG/1.1/DTD/svg11.dtd">
<!-- Creator: CorelDRAW -->
<svg xmlns="http://www.w3.org/2000/svg" xml:space="preserve" width="0.23613in" height="0.333339in" style="shape-rendering:geometricPrecision; text-rendering:geometricPrecision; image-rendering:optimizeQuality; fill-rule:evenodd; clip-rule:evenodd"
viewBox="0 0 0.0542412 0.0765708"
 xmlns:xlink="http://www.w3.org/1999/xlink">
 <defs>
  <style type="text/css">
   <![CDATA[
    .fil0 {fill:#394241}
   ]]>
  </style>
 </defs>
 <g id="Layer_x0020_1">
  <metadata id="CorelCorpID_0Corel-Layer"/>
  <g id="_284365496">
   <path id="_284365016" class="fil0" d="M0.0315967 0.0541833c0.00205472,-0.000104906 0.0036048,9.67671e-005 0.005551,-0.00176804 0.00139363,-0.00133665 0.00171739,-0.00337962 0.00386888,-0.00356411 0.000813025,0.0018648 0.0075189,0.0160986 0.0075397,0.0165526l-0.0077685 8.13929e-006c-0.00111418,-2.7131e-006 -0.00149673,-3.79834e-005 -0.0020927,0.000637578 -0.00082026,0.000929688 -0.00423876,0.0054687 -0.00470089,0.00576714 -0.000339137,-0.000494688 -0.0041836,-0.00954196 -0.00479404,-0.0108678 -0.000439522,-0.000953202 4.79314e-005,-0.00146598 0.000441331,-0.00235587l0.00195524 -0.00440969zm-0.0112883 0.0176351c-0.000363555,-0.000295728 -0.00084106,-0.00098395 -0.00117568,-0.00140177 -0.000404252,-0.000503732 -0.000744293,-0.000929688 -0.00115578,-0.00144156 -0.000775946,-0.000964958 -0.00152295,-0.00200227 -0.00235497,-0.00293919 -0.000562516,-0.000633056 -0.000918836,-0.00062763 -0.00200679,-0.000624012 -0.00240561,8.13929e-006 -0.00560707,7.32536e-005 -0.00785623,-9.04366e-006 5.6975e-005,-0.000803981 0.00645717,-0.0138513 0.00754603,-0.0165381 0.00170021,0.00014289 0.00220394,0.00157541 0.00296903,0.00263351 0.000743389,0.00102826 0.00178251,0.00189917 0.00321683,0.00237939 0.00156003,0.000521819 0.00320779,0.000465748 0.00468009,-0.000155551 0.00181144,-0.000765094 0.00193715,-0.00152747 0.00438165,-0.000801268 -0.000101289,0.000658378 -0.00802986,0.0186598 -0.0082442,0.0188976zm0.0306806 -0.0496298c-0.000274927,0.00145422 -0.00263532,0.00380467 -0.00104093,0.00752161 0.00032105,0.000748815 0.000822973,0.0013267 0.00101832,0.00216776 0.000489262,0.00210265 -0.000807599,0.00316528 -0.00217319,0.00401086 -0.00464754,0.0028786 -0.00221027,0.00652138 -0.00417998,0.00860685 -0.00198237,0.00209903 -0.00582502,-0.000322859 -0.00863127,0.00415466 -0.000797651,0.00127063 -0.00177527,0.00276646 -0.00393942,0.00235497 -0.00139725,-0.000265884 -0.00374317,-0.00263894 -0.00746554,-0.00107167 -0.00124169,0.000521819 -0.00268687,0.00188379 -0.00475244,0.000610447 -0.00167127,-0.00103007 -0.00154827,-0.00341036 -0.00497582,-0.00461769 -0.0019887,-0.000700884 -0.00357405,0.000116663 -0.00508977,-0.00129957 -0.00161248,-0.00150577 -0.000683701,-0.00295275 -0.00137373,-0.00502647 -0.00119195,-0.0035831 -0.00356591,-0.00355416 -0.00457428,-0.00501019 -0.00235497,-0.00340132 0.00261452,-0.00477596 0.000496497,-0.00999415 -0.000444044,-0.00109338 -0.00192811,-0.00272847 -0.00059236,-0.00481394 0.00100475,-0.00156636 0.00346824,-0.00161791 0.00460865,-0.00497582 0.000690936,-0.00203301 -0.000127516,-0.00359757 0.00131133,-0.00508977 0.00147231,-0.00152476 0.00299255,-0.000681892 0.00504998,-0.00134841 0.00163871,-0.000529958 0.00281529,-0.00157631 0.00358038,-0.00280806 0.000841965,-0.00135384 0.00178612,-0.00272576 0.00399458,-0.00230975 0.00132942,0.000250509 0.00369886,0.00263623 0.00742213,0.00103912 0.000704501,-0.000302058 0.00138006,-0.000837443 0.00218314,-0.00101832 0.00222384,-0.000501923 0.00328556,0.000949584 0.00405065,0.00221027 0.00275379,0.00454173 0.00661001,0.00220213 0.00862132,0.00416551 0.00146779,0.00143252 0.000663805,0.00300611 0.00133304,0.00506535 0.00109971,0.00338142 0.00356139,0.00349899 0.00458785,0.00499843 0.000421434,0.000615873 0.000708118,0.00154104 0.000530863,0.00247796zm-0.0307801 -0.0220584c-0.000837443,0.000457609 -0.00169478,0.000283067 -0.00320959,0.00176623 -0.000880852,0.000863669 -0.0013674,0.00216505 -0.00223197,0.00286322 -0.00188832,0.00152476 -0.00462945,-0.000176351 -0.00742665,0.00276284 -0.000759667,0.000798555 -0.00146507,0.0019462 -0.00173005,0.00337962 -0.000518202,0.00280444 0.000551663,0.00324034 -0.00247434,0.00510243 -0.00297717,0.00183044 -0.00404342,0.00567218 -0.00228533,0.00886007 0.00071264,0.00129324 0.00115849,0.00231156 0.000342755,0.00388696 -0.00069817,0.00134931 -0.00119919,0.00210446 -0.00118653,0.00392676 1.08524e-005,0.00157902 0.000570655,0.00288674 0.00127063,0.00384536 0.00208728,0.0028596 0.00403166,0.00122542 0.00423153,0.00594801 6.60187e-005,0.0015528 0.000667422,0.00275289 0.00139544,0.00370971 0.000988472,0.00129957 0.00182049,0.0015329 0.00301787,0.00218043 -2.35135e-005,0.000560707 -0.00684876,0.015036 -0.00791411,0.0173665 -0.00026317,0.000576985 -0.000637578,0.00121366 -0.000249605,0.00198508 0.000279449,0.000556185 0.000785894,0.00088447 0.00166132,0.000897131 0.00335158,4.79314e-005 0.00690845,-0.000150125 0.0102248,1.35655e-005l0.00556637 0.00700884c0.000301154,0.000373503 0.000559802,0.000792224 0.00120733,0.00090527 0.000711736,0.000124802 0.00123808,-0.000180873 0.00154104,-0.000550759 0.00046394,-0.000567037 0.0021759,-0.00479585 0.00260638,-0.00578613 0.000351798,-0.000808503 0.00225639,-0.00552025 0.00263532,-0.00576985 0.000354511,0.000559802 0.00329099,0.00744203 0.00383089,0.00867196 0.00079132,0.00180059 0.00114674,0.00372056 0.00285056,0.0034393 0.000931497,-0.000153742 0.00227538,-0.00220213 0.00308841,-0.00322678 0.000634865,-0.000800364 0.00121637,-0.00152567 0.0018639,-0.00233055 0.00046394,-0.000575177 0.00152928,-0.00177889 0.0018431,-0.00235316 0.00185214,-0.000151933 0.0103387,0.000167308 0.0111119,-0.000173638 0.000578794,-0.000255031 0.000641195,-0.000599595 0.000846486,-0.000777755 0.000195343,-0.00123989 -0.000262266,-0.0018223 -0.000673753,-0.00272847 -0.000411486,-0.000904366 -0.000728919,-0.00155551 -0.00110514,-0.00238572l-0.0054262 -0.0117568c-0.000264075,-0.000586029 -0.000964958,-0.00189736 -0.00106534,-0.00244812 0.00112594,-0.000705405 0.00141352,-0.000500114 0.00266969,-0.001844 0.00256297,-0.00274385 0.00106625,-0.00509429 0.00230885,-0.00688132 0.000694553,-0.000999324 0.00166313,-0.00121004 0.00257925,-0.00201583 0.00211893,-0.00186752 0.00315443,-0.00505812 0.00149401,-0.0081818 -0.00147773,-0.00277912 -0.000794033,-0.00280896 0.000247796,-0.00515669 0.00137464,-0.00310017 9.76715e-005,-0.00646712 -0.00228805,-0.00808865 -0.00188108,-0.00127787 -0.00251414,-0.00115126 -0.00264708,-0.00429212 -0.000118472,-0.00280986 -0.00173729,-0.00467557 -0.00350984,-0.00562968 -0.00137464,-0.000739771 -0.0021135,-0.000681892 -0.00382366,-0.000792224 -0.00120281,-7.68711e-005 -0.00260367,-0.000924262 -0.00275199,-0.00179788 -0.000368077,-0.000273118 -0.000576081,-0.000983046 -0.00142528,-0.0018024 -0.000466653,-0.000451279 -0.00113679,-0.000954106 -0.00190007,-0.00129505 -0.00165951,-0.000740676 -0.00354964,-0.000785894 -0.00523628,-8.32017e-005 -0.00156184,0.000651143 -0.00252589,0.00180964 -0.00471265,0.000643908 -0.00200046,-0.00106534 -0.00249695,-0.00125074 -0.00516212,-0.0010147z"/>
   <path id="_284365520" class="fil0" d="M0.0262022 0.0414579c0.000412391,-0.000289397 0.00157541,-0.0023197 0.00196067,-0.00292381 0.0006629,-0.00104002 0.00122903,-0.00192901 0.00190731,-0.00298622 0.0012851,-0.00200317 0.00252137,-0.00392223 0.00378115,-0.00591003 0.00134298,-0.00211712 0.0025069,-0.00388696 0.00378206,-0.00590822 0.000514584,-0.000817547 0.00360299,-0.00551301 0.00373684,-0.00595706l-0.00266245 -0.00164956 -0.00653947 0.010232c-0.000666518,0.00101108 -0.00608457,0.00963421 -0.00656479,0.0102003 -0.000491071,-0.000212526 -0.00210175,-0.00183044 -0.00266697,-0.00230975 -0.00102826,-0.000873617 -0.00752161,-0.00687589 -0.00792224,-0.00705496 -0.000476601,0.00040606 -0.00174995,0.00182049 -0.0020719,0.00229076 0.000195343,0.000322859 0.0061316,0.00558536 0.00662086,0.00603845l0.00663895 0.00593807z"/>
  </g>
 </g>
</svg>
