<?xml version="1.0" encoding="UTF-8"?>
<!DOCTYPE svg PUBLIC "-//W3C//DTD SVG 1.1//EN" "http://www.w3.org/Graphics/SVG/1.1/DTD/svg11.dtd">
<!-- Creator: CorelDRAW 2019 (64-Bit) -->
<svg xmlns="http://www.w3.org/2000/svg" xml:space="preserve" width="0.236126in" height="0.333331in" version="1.1" style="shape-rendering:geometricPrecision; text-rendering:geometricPrecision; image-rendering:optimizeQuality; fill-rule:evenodd; clip-rule:evenodd"
viewBox="0 0 3.02 4.26"
 xmlns:xlink="http://www.w3.org/1999/xlink">
 <defs>
  <style type="text/css">
   <![CDATA[
    .fil0 {fill:#25878A}
   ]]>
  </style>
 </defs>
 <g id="Layer_x0020_1">
  <metadata id="CorelCorpID_0Corel-Layer"/>
  <g id="_2318680360880">
   <path class="fil0" d="M1.76 3.01c0.11,-0.01 0.2,0.01 0.31,-0.1 0.08,-0.07 0.1,-0.19 0.22,-0.2 0.05,0.1 0.42,0.9 0.42,0.92l-0.43 0c-0.06,-0 -0.08,-0 -0.12,0.04 -0.05,0.05 -0.24,0.3 -0.26,0.32 -0.02,-0.03 -0.23,-0.53 -0.27,-0.6 -0.02,-0.05 0,-0.08 0.02,-0.13l0.11 -0.25zm-0.63 0.98c-0.02,-0.02 -0.05,-0.05 -0.07,-0.08 -0.02,-0.03 -0.04,-0.05 -0.06,-0.08 -0.04,-0.05 -0.08,-0.11 -0.13,-0.16 -0.03,-0.04 -0.05,-0.03 -0.11,-0.03 -0.13,0 -0.31,0 -0.44,-0 0,-0.04 0.36,-0.77 0.42,-0.92 0.09,0.01 0.12,0.09 0.17,0.15 0.04,0.06 0.1,0.11 0.18,0.13 0.09,0.03 0.18,0.03 0.26,-0.01 0.1,-0.04 0.11,-0.08 0.24,-0.04 -0.01,0.04 -0.45,1.04 -0.46,1.05zm1.71 -2.76c-0.02,0.08 -0.15,0.21 -0.06,0.42 0.02,0.04 0.05,0.07 0.06,0.12 0.03,0.12 -0.04,0.18 -0.12,0.22 -0.26,0.16 -0.12,0.36 -0.23,0.48 -0.11,0.12 -0.32,-0.02 -0.48,0.23 -0.04,0.07 -0.1,0.15 -0.22,0.13 -0.08,-0.01 -0.21,-0.15 -0.42,-0.06 -0.07,0.03 -0.15,0.1 -0.26,0.03 -0.09,-0.06 -0.09,-0.19 -0.28,-0.26 -0.11,-0.04 -0.2,0.01 -0.28,-0.07 -0.09,-0.08 -0.04,-0.16 -0.08,-0.28 -0.07,-0.2 -0.2,-0.2 -0.25,-0.28 -0.13,-0.19 0.15,-0.27 0.03,-0.56 -0.02,-0.06 -0.11,-0.15 -0.03,-0.27 0.06,-0.09 0.19,-0.09 0.26,-0.28 0.04,-0.11 -0.01,-0.2 0.07,-0.28 0.08,-0.08 0.17,-0.04 0.28,-0.08 0.09,-0.03 0.16,-0.09 0.2,-0.16 0.05,-0.08 0.1,-0.15 0.22,-0.13 0.07,0.01 0.21,0.15 0.41,0.06 0.04,-0.02 0.08,-0.05 0.12,-0.06 0.12,-0.03 0.18,0.05 0.23,0.12 0.15,0.25 0.37,0.12 0.48,0.23 0.08,0.08 0.04,0.17 0.07,0.28 0.06,0.19 0.2,0.19 0.26,0.28 0.02,0.03 0.04,0.09 0.03,0.14zm-1.71 -1.23c-0.05,0.03 -0.09,0.02 -0.18,0.1 -0.05,0.05 -0.08,0.12 -0.12,0.16 -0.11,0.08 -0.26,-0.01 -0.41,0.15 -0.04,0.04 -0.08,0.11 -0.1,0.19 -0.03,0.16 0.03,0.18 -0.14,0.28 -0.17,0.1 -0.22,0.32 -0.13,0.49 0.04,0.07 0.06,0.13 0.02,0.22 -0.04,0.08 -0.07,0.12 -0.07,0.22 0,0.09 0.03,0.16 0.07,0.21 0.12,0.16 0.22,0.07 0.24,0.33 0,0.09 0.04,0.15 0.08,0.21 0.05,0.07 0.1,0.09 0.17,0.12 -0,0.03 -0.38,0.84 -0.44,0.97 -0.01,0.03 -0.04,0.07 -0.01,0.11 0.02,0.03 0.04,0.05 0.09,0.05 0.19,0 0.38,-0.01 0.57,0l0.31 0.39c0.02,0.02 0.03,0.04 0.07,0.05 0.04,0.01 0.07,-0.01 0.09,-0.03 0.03,-0.03 0.12,-0.27 0.14,-0.32 0.02,-0.04 0.13,-0.31 0.15,-0.32 0.02,0.03 0.18,0.41 0.21,0.48 0.04,0.1 0.06,0.21 0.16,0.19 0.05,-0.01 0.13,-0.12 0.17,-0.18 0.04,-0.04 0.07,-0.08 0.1,-0.13 0.03,-0.03 0.09,-0.1 0.1,-0.13 0.1,-0.01 0.58,0.01 0.62,-0.01 0.03,-0.01 0.04,-0.03 0.05,-0.04 0.01,-0.07 -0.01,-0.1 -0.04,-0.15 -0.02,-0.05 -0.04,-0.09 -0.06,-0.13l-0.3 -0.65c-0.01,-0.03 -0.05,-0.11 -0.06,-0.14 0.06,-0.04 0.08,-0.03 0.15,-0.1 0.14,-0.15 0.06,-0.28 0.13,-0.38 0.04,-0.06 0.09,-0.07 0.14,-0.11 0.12,-0.1 0.18,-0.28 0.08,-0.46 -0.08,-0.15 -0.04,-0.16 0.01,-0.29 0.08,-0.17 0.01,-0.36 -0.13,-0.45 -0.1,-0.07 -0.14,-0.06 -0.15,-0.24 -0.01,-0.16 -0.1,-0.26 -0.2,-0.31 -0.08,-0.04 -0.12,-0.04 -0.21,-0.04 -0.07,-0 -0.14,-0.05 -0.15,-0.1 -0.02,-0.02 -0.03,-0.05 -0.08,-0.1 -0.03,-0.03 -0.06,-0.05 -0.11,-0.07 -0.09,-0.04 -0.2,-0.04 -0.29,-0 -0.09,0.04 -0.14,0.1 -0.26,0.04 -0.11,-0.06 -0.14,-0.07 -0.29,-0.06z"/>
   <path class="fil0" d="M1.46 2.31c0.02,-0.02 0.09,-0.13 0.11,-0.16 0.04,-0.06 0.07,-0.11 0.11,-0.17 0.07,-0.11 0.14,-0.22 0.21,-0.33 0.07,-0.12 0.14,-0.22 0.21,-0.33 0.03,-0.05 0.2,-0.31 0.21,-0.33l-0.15 -0.09 -0.36 0.57c-0.04,0.06 -0.34,0.54 -0.37,0.57 -0.03,-0.01 -0.12,-0.1 -0.15,-0.13 -0.06,-0.05 -0.42,-0.38 -0.44,-0.39 -0.03,0.02 -0.1,0.1 -0.12,0.13 0.01,0.02 0.34,0.31 0.37,0.34l0.37 0.33z"/>
  </g>
 </g>
</svg>
