<?xml version="1.0" encoding="UTF-8"?>
<!DOCTYPE svg PUBLIC "-//W3C//DTD SVG 1.1//EN" "http://www.w3.org/Graphics/SVG/1.1/DTD/svg11.dtd">
<!-- Creator: CorelDRAW -->
<svg xmlns="http://www.w3.org/2000/svg" xml:space="preserve" width="0.309803in" height="0.333331in" style="shape-rendering:geometricPrecision; text-rendering:geometricPrecision; image-rendering:optimizeQuality; fill-rule:evenodd; clip-rule:evenodd"
viewBox="0 0 0.441622 0.47516"
 xmlns:xlink="http://www.w3.org/1999/xlink">
 <defs>
  <style type="text/css">
   <![CDATA[
    .fil0 {fill:#394241}
   ]]>
  </style>
 </defs>
 <g id="Layer_x0020_1">
  <metadata id="CorelCorpID_0Corel-Layer"/>
  <g id="_284366336">
   <path id="_284365904" class="fil0" d="M0.0321465 0.124613c0.0254231,-0.00431015 0.0803102,-0.023588 0.103735,-0.0343802 0.0155682,-0.00717797 0.03062,-0.016988 0.0432923,-0.025642 0.0070096,-0.00478718 0.0135646,-0.0093611 0.0200972,-0.0143784 0.00602186,-0.00462443 0.0135871,-0.0105621 0.0196763,-0.0145187 0.00596574,0.0023066 0.0644839,0.0488596 0.136679,0.0754669 0.00884478,0.00326067 0.0171396,0.00604992 0.0265456,0.00886162 0.00598819,0.00178467 0.0240201,0.0054887 0.0277746,0.00761572 0.00108315,0.0548534 -0.0207258,0.156989 -0.0505152,0.202919 -0.0134187,0.0206977 -0.0266073,0.0357439 -0.0440948,0.0509529l-0.00836214 0.00746419c-0.00306425,0.00274996 -0.00551677,0.00477596 -0.00864275,0.00718919 -0.00590962,0.00457392 -0.0688165,0.0494769 -0.0774311,0.0463229 -0.00573564,-0.00210456 -0.0147432,-0.00763255 -0.0207538,-0.0109381 -0.0452846,-0.02489 -0.0902886,-0.0592365 -0.118232,-0.103533 -0.0338526,-0.0536692 -0.0491009,-0.138974 -0.0497687,-0.203402zm-0.0321465 -0.0173079l0 0.0104218c0.00209895,0.000342343 0.00152651,-0.000617339 0.00196987,0.0032719 0.00017959,0.00161069 4.48974e-005,0.00325506 -2.24487e-005,0.00483208 -0.00107192,0.0160284 0.00352444,0.0482142 0.00588717,0.0648599 0.00752592,0.0530406 0.0236441,0.117435 0.0516881,0.159717 0.00489381,0.00738001 0.00970906,0.0142381 0.0150406,0.0203834 0.00978202,0.0112861 0.0230211,0.0264389 0.0350985,0.0357046 0.00638665,0.00489381 0.011982,0.0103096 0.0190814,0.015383 0.0240482,0.0172013 0.0388026,0.0269048 0.0651966,0.0410194 0.00356934,0.00190814 0.0207987,0.00895142 0.0223028,0.0122626l0.0138789 0c0.00121223,-0.00286221 0.0181273,-0.0106631 0.021214,-0.0123131 0.00739684,-0.00395658 0.0146478,-0.0080703 0.0218594,-0.0125993 0.0217752,-0.0136769 0.0401607,-0.0265961 0.0584227,-0.043152 0.0033673,-0.00304741 0.00592645,-0.00438872 0.00897948,-0.00781214 0.0101412,-0.0113759 0.0136039,-0.0123356 0.0246936,-0.0265512 0.00520248,-0.00666726 0.0101524,-0.0121167 0.0149789,-0.0194911 0.0186941,-0.028566 0.0312879,-0.0566605 0.0414178,-0.0946437 0.00897386,-0.0336618 0.0172967,-0.0821341 0.0180095,-0.118776l-0.000190814 -0.00507902 0.000735195 -0.00785704 0.00138059 0 0 -0.0181273c-0.00384995,-0.00137498 -0.00214946,-0.00564023 -0.01178,-0.00846316 -0.00550554,-0.00161631 -0.0110897,-0.00254231 -0.0166513,-0.00379944 -0.0312486,-0.00704889 -0.0613523,-0.0186661 -0.0894805,-0.0326179 -0.018711,-0.00927692 -0.0351883,-0.0191375 -0.0515927,-0.0294976 -0.00390046,-0.00246936 -0.0450714,-0.029245 -0.0469795,-0.0343802l-0.0126835 0c-0.000998967,0.00292394 -0.00245813,0.00308669 -0.0051632,0.00510708 -0.0494937,0.0370291 -0.0866183,0.06454 -0.148683,0.0815 -0.010433,0.00285098 -0.0211691,0.00568513 -0.0316863,0.00837897 -0.0356822,0.00914223 -0.0182452,0.00885601 -0.0269216,0.0123187z"/>
   <path id="_284365760" class="fil0" d="M0.200315 0.279587c-0.00410811,-0.00287904 -0.0106407,-0.0102591 -0.0146702,-0.0142718l-0.0433765 -0.0432923c-0.0039173,-0.00386679 -0.00918151,-0.0115555 -0.018885,-0.00927692 -0.00640349,0.00150967 -0.0128182,0.00832285 -0.0122458,0.016309 0.000510708,0.00706573 0.00833408,0.0133121 0.011881,0.0168814 0.0113927,0.0114713 0.0661956,0.0684853 0.0739067,0.0704833 0.00968661,0.00250303 0.0153886,-0.0051183 0.0192217,-0.00897386l0.0433709 -0.0432811c0.00835652,-0.0083902 0.0833015,-0.0808153 0.085479,-0.0878361 0.00282853,-0.00910856 -0.00326628,-0.0159386 -0.00896264,-0.0185651 -0.0101412,-0.00468055 -0.0155738,0.0024413 -0.0197997,0.00661114 -0.0195921,0.0193508 -0.0381964,0.0383311 -0.0577942,0.0577212 -0.00487137,0.00482086 -0.0542753,0.0549768 -0.0581253,0.0574911z"/>
   <path id="_284366384" class="fil0" d="M-0 0.125791l0.00194742 3.92852e-005c6.73461e-005,-0.00157702 0.000202038,-0.00322139 2.24487e-005,-0.00483208 -0.000443362,-0.00388924 0.00012908,-0.00292955 -0.00196987,-0.0032719l0 0.00806469z"/>
   <polygon id="_284366216" class="fil0" points="0.439506,0.134743 0.441622,0.134743 0.441622,0.126886 0.440241,0.126886 "/>
   <polygon id="_284366096" class="fil0" points="0.439697,0.139822 0.441622,0.139822 0.441622,0.134743 0.439506,0.134743 "/>
  </g>
 </g>
</svg>
