<?xml version="1.0" encoding="UTF-8"?>
<!DOCTYPE svg PUBLIC "-//W3C//DTD SVG 1.1//EN" "http://www.w3.org/Graphics/SVG/1.1/DTD/svg11.dtd">
<!-- Creator: CorelDRAW 2019 (64-Bit) -->
<svg xmlns="http://www.w3.org/2000/svg" xml:space="preserve" width="0.309803in" height="0.333331in" version="1.1" style="shape-rendering:geometricPrecision; text-rendering:geometricPrecision; image-rendering:optimizeQuality; fill-rule:evenodd; clip-rule:evenodd"
viewBox="0 0 44.87 48.28"
 xmlns:xlink="http://www.w3.org/1999/xlink">
 <defs>
  <style type="text/css">
   <![CDATA[
    .fil0 {fill:#25878A}
   ]]>
  </style>
 </defs>
 <g id="Layer_x0020_1">
  <metadata id="CorelCorpID_0Corel-Layer"/>
  <g id="_2284013195536">
   <path class="fil0" d="M3.27 12.66c2.58,-0.44 8.16,-2.4 10.54,-3.49 1.58,-0.73 3.11,-1.73 4.4,-2.61 0.71,-0.49 1.38,-0.95 2.04,-1.46 0.61,-0.47 1.38,-1.07 2,-1.48 0.61,0.23 6.55,4.96 13.89,7.67 0.9,0.33 1.74,0.61 2.7,0.9 0.61,0.18 2.44,0.56 2.82,0.77 0.11,5.57 -2.11,15.95 -5.13,20.62 -1.36,2.1 -2.7,3.63 -4.48,5.18l-0.85 0.76c-0.31,0.28 -0.56,0.49 -0.88,0.73 -0.6,0.46 -6.99,5.03 -7.87,4.71 -0.58,-0.21 -1.5,-0.78 -2.11,-1.11 -4.6,-2.53 -9.17,-6.02 -12.01,-10.52 -3.44,-5.45 -4.99,-14.12 -5.06,-20.67zm-3.27 -1.76l0 1.06c0.21,0.03 0.16,-0.06 0.2,0.33 0.02,0.16 0,0.33 -0,0.49 -0.11,1.63 0.36,4.9 0.6,6.59 0.76,5.39 2.4,11.93 5.25,16.23 0.5,0.75 0.99,1.45 1.53,2.07 0.99,1.15 2.34,2.69 3.57,3.63 0.65,0.5 1.22,1.05 1.94,1.56 2.44,1.75 3.94,2.73 6.62,4.17 0.36,0.19 2.11,0.91 2.27,1.25l1.41 0c0.12,-0.29 1.84,-1.08 2.16,-1.25 0.75,-0.4 1.49,-0.82 2.22,-1.28 2.21,-1.39 4.08,-2.7 5.94,-4.38 0.34,-0.31 0.6,-0.45 0.91,-0.79 1.03,-1.16 1.38,-1.25 2.51,-2.7 0.53,-0.68 1.03,-1.23 1.52,-1.98 1.9,-2.9 3.18,-5.76 4.21,-9.62 0.91,-3.42 1.76,-8.35 1.83,-12.07l-0.02 -0.52 0.07 -0.8 0.14 0 0 -1.84c-0.39,-0.14 -0.22,-0.57 -1.2,-0.86 -0.56,-0.16 -1.13,-0.26 -1.69,-0.39 -3.18,-0.72 -6.23,-1.9 -9.09,-3.31 -1.9,-0.94 -3.58,-1.94 -5.24,-3 -0.4,-0.25 -4.58,-2.97 -4.77,-3.49l-1.29 0c-0.1,0.3 -0.25,0.31 -0.52,0.52 -5.03,3.76 -8.8,6.56 -15.11,8.28 -1.06,0.29 -2.15,0.58 -3.22,0.85 -3.63,0.93 -1.85,0.9 -2.74,1.25z"/>
   <path class="fil0" d="M20.35 28.41c-0.42,-0.29 -1.08,-1.04 -1.49,-1.45l-4.41 -4.4c-0.4,-0.39 -0.93,-1.17 -1.92,-0.94 -0.65,0.15 -1.3,0.85 -1.24,1.66 0.05,0.72 0.85,1.35 1.21,1.72 1.16,1.17 6.73,6.96 7.51,7.16 0.98,0.25 1.56,-0.52 1.95,-0.91l4.41 -4.4c0.85,-0.85 8.46,-8.21 8.69,-8.92 0.29,-0.93 -0.33,-1.62 -0.91,-1.89 -1.03,-0.48 -1.58,0.25 -2.01,0.67 -1.99,1.97 -3.88,3.89 -5.87,5.86 -0.49,0.49 -5.51,5.59 -5.91,5.84z"/>
   <path class="fil0" d="M-0 12.78l0.2 0c0.01,-0.16 0.02,-0.33 0,-0.49 -0.05,-0.4 0.01,-0.3 -0.2,-0.33l0 0.82z"/>
   <polygon class="fil0" points="44.66,13.69 44.87,13.69 44.87,12.89 44.73,12.89 "/>
   <polygon class="fil0" points="44.68,14.21 44.87,14.21 44.87,13.69 44.66,13.69 "/>
  </g>
 </g>
</svg>
