<?xml version="1.0" encoding="UTF-8"?>
<!DOCTYPE svg PUBLIC "-//W3C//DTD SVG 1.1//EN" "http://www.w3.org/Graphics/SVG/1.1/DTD/svg11.dtd">
<!-- Creator: CorelDRAW 2019 (64-Bit) -->
<svg xmlns="http://www.w3.org/2000/svg" xml:space="preserve" width="0.332827in" height="0.333339in" version="1.1" style="shape-rendering:geometricPrecision; text-rendering:geometricPrecision; image-rendering:optimizeQuality; fill-rule:evenodd; clip-rule:evenodd"
viewBox="0 0 23.3 23.33"
 xmlns:xlink="http://www.w3.org/1999/xlink">
 <defs>
  <style type="text/css">
   <![CDATA[
    .fil0 {fill:#25878A}
   ]]>
  </style>
 </defs>
 <g id="Layer_x0020_1">
  <metadata id="CorelCorpID_0Corel-Layer"/>
  <g id="_2318680378736">
   <path class="fil0" d="M3.53 11.54l0 0.03 -0.02 0.01c-0.07,0.02 -0.14,0.05 -0.23,0.07 -0.05,0.01 -0.1,0.02 -0.16,0.03 -0.06,0.01 -0.13,0.02 -0.21,0.03 -0.09,0.01 -0.19,0.02 -0.3,0.02 -0.11,0.01 -0.22,0.01 -0.33,0.01 -0.1,0 -0.21,0 -0.31,0 -0.09,-0 -0.19,-0.01 -0.27,-0.01 -0.09,-0.01 -0.18,-0.02 -0.26,-0.03 -0.08,-0.01 -0.15,-0.03 -0.22,-0.04 -0.07,-0.02 -0.14,-0.03 -0.2,-0.05 -0.06,-0.02 -0.12,-0.04 -0.19,-0.05l-0.02 -0.01c-0.01,-0.17 -0.04,-0.4 -0.04,-0.71 0,-0.34 0.03,-0.78 0.07,-1.02 0.01,-0.03 0.01,-0.06 0.02,-0.09 0.11,-0.06 0.23,-0.11 0.35,-0.12 0.06,-0.01 0.13,-0 0.19,0.01 0.06,0.01 0.11,0.03 0.14,0.05l0 0c0.01,0.01 0.02,0.02 0.01,0.03 -0,0.02 -0.01,0.03 -0.03,0.05l0 0 -0 0c-0.01,0.01 -0.03,0.03 -0.05,0.05 -0.03,0.03 -0.06,0.06 -0.08,0.1 -0.02,0.04 -0.02,0.08 -0.01,0.13 0.01,0.04 0.03,0.08 0.07,0.12 0.04,0.04 0.09,0.07 0.16,0.1 0.07,0.03 0.16,0.05 0.27,0.07 0.12,0.02 0.28,0.04 0.44,0.04 0.14,0 0.29,0 0.43,-0.01 0.25,-0.03 0.47,-0.09 0.65,-0.13l0.04 -0.01c-0.01,0.01 -0.01,0.03 -0.02,0.04 -0.03,0.14 0.05,0.4 0.08,0.64 0.03,0.24 0.02,0.45 0.02,0.64zm-2.58 -1.98c0.04,-0.04 0.1,-0.07 0.18,-0.1 0.18,-0.06 0.47,-0.14 0.79,-0.2 0.32,-0.06 0.66,-0.1 0.91,-0.08 0.26,0.01 0.43,0.08 0.52,0.2 0.08,0.12 0.07,0.29 0.07,0.39 0,0.1 0.01,0.14 0.07,0.17 0.06,0.03 0.16,0.04 0.21,0.07 0.01,0.01 0.02,0.01 0.03,0.02 -0.07,0.01 -0.15,0.03 -0.25,0.06 -0.03,0.01 -0.06,0.02 -0.1,0.03 -0.17,0.05 -0.39,0.11 -0.63,0.13 -0.13,0.01 -0.28,0.02 -0.41,0.01 -0.16,-0.01 -0.31,-0.02 -0.43,-0.04 -0.11,-0.02 -0.19,-0.04 -0.25,-0.06 -0.06,-0.02 -0.09,-0.05 -0.12,-0.07 -0.02,-0.02 -0.03,-0.04 -0.04,-0.06 -0,-0.02 -0,-0.04 0,-0.05 0.01,-0.02 0.03,-0.04 0.06,-0.07 0.02,-0.02 0.04,-0.03 0.06,-0.06l0 -0 0 -0c0.03,-0.03 0.05,-0.07 0.05,-0.11 0.01,-0.05 -0.01,-0.1 -0.06,-0.14l-0 -0c-0.04,-0.03 -0.11,-0.06 -0.19,-0.08 -0.07,-0.01 -0.15,-0.02 -0.23,-0.01 -0.09,0.01 -0.17,0.04 -0.25,0.07zm2.59 2.16c0.01,0.11 0.04,0.22 0.08,0.3 0.06,0.13 0.17,0.24 0.28,0.4 0.11,0.17 0.24,0.39 0.36,0.82 0.13,0.42 0.25,1.04 0.26,1.56 0.01,0.52 -0.09,0.94 -0.18,1.37 -0.08,0.43 -0.15,0.86 -0.15,1.36 0,0.5 0.08,1.06 0.14,1.76 0.07,0.7 0.13,1.55 0.11,2.14 -0.02,0.59 -0.11,0.92 -0.24,1.19 -0.13,0.27 -0.29,0.46 -0.5,0.58 -0.21,0.11 -0.46,0.13 -0.92,0.14 -0.46,0 -1.13,-0.01 -1.56,-0.1 -0.42,-0.08 -0.6,-0.24 -0.7,-0.42 -0.1,-0.18 -0.12,-0.38 -0.13,-0.56 -0,-0.18 0.01,-0.35 -0.03,-0.57 -0.04,-0.22 -0.13,-0.49 -0.15,-0.89 -0.03,-0.4 0,-0.92 0.05,-1.4 0.05,-0.48 0.11,-0.91 0.15,-1.32 0.04,-0.41 0.04,-0.78 -0.04,-1.29 -0.09,-0.5 -0.27,-1.14 -0.35,-1.74 -0.07,-0.6 -0.04,-1.18 0.11,-1.68 0.15,-0.5 0.41,-0.94 0.54,-1.21 0.1,-0.21 0.13,-0.32 0.13,-0.44 0.12,0.03 0.24,0.07 0.37,0.1 0.07,0.02 0.15,0.03 0.23,0.04 0.08,0.01 0.17,0.02 0.27,0.03 0.09,0.01 0.18,0.01 0.28,0.01 0.1,0 0.21,0 0.32,-0 0.12,-0 0.23,-0.01 0.33,-0.01 0.11,-0.01 0.21,-0.01 0.3,-0.02 0.08,-0.01 0.16,-0.02 0.22,-0.03 0.06,-0.01 0.12,-0.02 0.17,-0.03 0.09,-0.02 0.16,-0.05 0.23,-0.07z"/>
   <path class="fil0" d="M12.65 7.21l0 0.04 -0.03 0.01c-0.09,0.03 -0.19,0.07 -0.32,0.1 -0.06,0.02 -0.13,0.03 -0.21,0.04 -0.08,0.01 -0.18,0.03 -0.29,0.04 -0.12,0.01 -0.26,0.02 -0.4,0.03 -0.14,0.01 -0.3,0.01 -0.45,0.02 -0.14,0 -0.29,0 -0.43,0 -0.13,-0 -0.25,-0.01 -0.37,-0.02 -0.13,-0.01 -0.24,-0.02 -0.35,-0.04 -0.11,-0.02 -0.21,-0.03 -0.3,-0.06 -0.1,-0.02 -0.19,-0.04 -0.27,-0.07 -0.08,-0.02 -0.17,-0.05 -0.26,-0.07l-0.03 -0.01c-0.02,-0.23 -0.05,-0.54 -0.05,-0.97 0,-0.46 0.04,-1.07 0.1,-1.4 0.01,-0.04 0.02,-0.08 0.03,-0.12 0.16,-0.08 0.31,-0.15 0.48,-0.17 0.09,-0.01 0.18,-0 0.26,0.02 0.08,0.02 0.15,0.04 0.19,0.07l0 0c0.02,0.01 0.02,0.03 0.02,0.04 -0,0.02 -0.02,0.05 -0.04,0.07l0 0 -0 0c-0.02,0.02 -0.04,0.04 -0.06,0.06 -0.05,0.04 -0.09,0.08 -0.12,0.14 -0.02,0.05 -0.03,0.12 -0.02,0.18 0.01,0.05 0.04,0.11 0.09,0.16 0.05,0.05 0.12,0.09 0.22,0.13 0.09,0.04 0.21,0.07 0.37,0.09 0.17,0.03 0.38,0.05 0.61,0.06 0.19,0.01 0.4,0 0.59,-0.02 0.34,-0.03 0.65,-0.12 0.89,-0.18l0.05 -0.01c-0.01,0.02 -0.02,0.04 -0.02,0.06 -0.05,0.19 0.07,0.55 0.11,0.88 0.05,0.33 0.03,0.62 0.03,0.88zm-3.53 -2.7c0.06,-0.06 0.13,-0.09 0.24,-0.13 0.24,-0.09 0.64,-0.2 1.08,-0.28 0.43,-0.08 0.9,-0.13 1.25,-0.11 0.35,0.02 0.59,0.11 0.71,0.27 0.11,0.16 0.09,0.39 0.09,0.53 0,0.14 0.02,0.19 0.1,0.23 0.08,0.04 0.22,0.06 0.29,0.09 0.02,0.01 0.03,0.02 0.04,0.03 -0.1,0.02 -0.2,0.04 -0.35,0.08 -0.04,0.01 -0.09,0.02 -0.14,0.04 -0.23,0.06 -0.53,0.14 -0.86,0.18 -0.18,0.02 -0.38,0.02 -0.57,0.02 -0.22,-0.01 -0.42,-0.03 -0.59,-0.05 -0.15,-0.02 -0.26,-0.05 -0.34,-0.09 -0.08,-0.03 -0.13,-0.06 -0.16,-0.1 -0.03,-0.03 -0.04,-0.06 -0.05,-0.08 -0.01,-0.03 -0,-0.05 0.01,-0.07 0.01,-0.03 0.04,-0.06 0.08,-0.09 0.02,-0.02 0.05,-0.05 0.08,-0.08l0 -0 0 -0c0.04,-0.04 0.07,-0.1 0.07,-0.15 0.01,-0.07 -0.01,-0.13 -0.08,-0.19l-0 -0c-0.06,-0.05 -0.15,-0.09 -0.26,-0.11 -0.1,-0.02 -0.2,-0.03 -0.31,-0.02 -0.12,0.01 -0.24,0.05 -0.35,0.09zm3.54 2.95c0.02,0.16 0.05,0.29 0.11,0.42 0.09,0.18 0.23,0.32 0.38,0.55 0.16,0.23 0.33,0.54 0.5,1.12 0.17,0.58 0.34,1.43 0.36,2.14 0.02,0.71 -0.13,1.29 -0.24,1.87 -0.12,0.58 -0.21,1.18 -0.2,1.86 0,0.68 0.11,1.45 0.2,2.41 0.09,0.96 0.17,2.12 0.15,2.93 -0.03,0.81 -0.16,1.26 -0.33,1.62 -0.18,0.36 -0.4,0.64 -0.68,0.79 -0.28,0.15 -0.63,0.18 -1.25,0.19 -0.63,0 -1.55,-0.02 -2.13,-0.13 -0.58,-0.12 -0.82,-0.33 -0.96,-0.57 -0.14,-0.24 -0.17,-0.51 -0.17,-0.77 -0.01,-0.25 0.01,-0.48 -0.04,-0.79 -0.05,-0.3 -0.17,-0.68 -0.21,-1.22 -0.04,-0.54 0,-1.26 0.07,-1.92 0.07,-0.66 0.16,-1.25 0.21,-1.8 0.05,-0.55 0.06,-1.07 -0.06,-1.76 -0.12,-0.69 -0.37,-1.56 -0.47,-2.38 -0.1,-0.83 -0.05,-1.61 0.15,-2.3 0.2,-0.69 0.55,-1.29 0.74,-1.66 0.14,-0.28 0.18,-0.44 0.18,-0.6 0.16,0.05 0.32,0.09 0.51,0.13 0.1,0.02 0.2,0.04 0.32,0.06 0.11,0.02 0.23,0.03 0.37,0.04 0.12,0.01 0.25,0.01 0.38,0.02 0.14,0 0.29,0 0.44,-0 0.16,-0 0.31,-0.01 0.46,-0.02 0.15,-0.01 0.29,-0.02 0.41,-0.03 0.12,-0.01 0.21,-0.03 0.3,-0.04 0.09,-0.01 0.16,-0.03 0.23,-0.05 0.12,-0.03 0.22,-0.06 0.31,-0.1z"/>
   <path class="fil0" d="M21.66 3.89l0 0.04 -0.04 0.01c-0.11,0.04 -0.23,0.08 -0.38,0.12 -0.08,0.02 -0.16,0.04 -0.26,0.05 -0.1,0.02 -0.21,0.03 -0.35,0.05 -0.14,0.02 -0.31,0.03 -0.49,0.04 -0.17,0.01 -0.36,0.02 -0.54,0.02 -0.17,0 -0.35,0 -0.52,0 -0.15,-0 -0.31,-0.01 -0.45,-0.02 -0.15,-0.01 -0.29,-0.03 -0.43,-0.05 -0.13,-0.02 -0.25,-0.04 -0.37,-0.07 -0.12,-0.03 -0.23,-0.05 -0.33,-0.08 -0.1,-0.03 -0.2,-0.06 -0.31,-0.09l-0.03 -0.01c-0.02,-0.28 -0.06,-0.65 -0.06,-1.17 0,-0.56 0.05,-1.29 0.12,-1.69 0.01,-0.05 0.02,-0.1 0.03,-0.14 0.19,-0.09 0.38,-0.18 0.57,-0.2 0.11,-0.01 0.22,-0 0.32,0.02 0.1,0.02 0.18,0.05 0.23,0.09l0 0c0.02,0.02 0.03,0.03 0.02,0.05 -0,0.03 -0.02,0.06 -0.05,0.09l0 0 -0 0c-0.02,0.02 -0.05,0.05 -0.08,0.07 -0.05,0.05 -0.11,0.1 -0.14,0.17 -0.03,0.06 -0.04,0.14 -0.02,0.22 0.02,0.07 0.05,0.13 0.11,0.19 0.06,0.06 0.14,0.11 0.26,0.16 0.11,0.04 0.26,0.08 0.45,0.11 0.2,0.03 0.46,0.06 0.73,0.07 0.23,0.01 0.48,0 0.71,-0.02 0.41,-0.04 0.78,-0.14 1.07,-0.22l0.06 -0.02c-0.01,0.02 -0.02,0.05 -0.03,0.07 -0.05,0.22 0.08,0.66 0.13,1.06 0.05,0.4 0.03,0.75 0.04,1.06zm-4.25 -3.26c0.07,-0.07 0.16,-0.11 0.29,-0.16 0.29,-0.1 0.78,-0.24 1.3,-0.33 0.52,-0.1 1.08,-0.16 1.51,-0.13 0.43,0.02 0.72,0.13 0.85,0.33 0.13,0.19 0.11,0.47 0.11,0.64 0,0.17 0.02,0.23 0.12,0.27 0.1,0.04 0.27,0.07 0.35,0.11 0.02,0.01 0.04,0.02 0.05,0.03 -0.11,0.02 -0.25,0.05 -0.42,0.09 -0.05,0.01 -0.1,0.03 -0.17,0.04 -0.28,0.08 -0.64,0.17 -1.04,0.21 -0.22,0.02 -0.46,0.03 -0.68,0.02 -0.26,-0.01 -0.51,-0.03 -0.71,-0.07 -0.18,-0.03 -0.31,-0.06 -0.41,-0.1 -0.09,-0.04 -0.15,-0.07 -0.19,-0.12 -0.03,-0.03 -0.05,-0.07 -0.06,-0.1 -0.01,-0.03 -0,-0.06 0.01,-0.09 0.02,-0.04 0.05,-0.07 0.09,-0.11 0.03,-0.03 0.06,-0.06 0.09,-0.09l0 -0.01 0 -0c0.04,-0.05 0.08,-0.11 0.09,-0.18 0.01,-0.08 -0.01,-0.16 -0.09,-0.23l-0 -0c-0.07,-0.06 -0.18,-0.1 -0.31,-0.13 -0.11,-0.02 -0.25,-0.03 -0.37,-0.02 -0.15,0.01 -0.28,0.06 -0.42,0.11zm4.27 3.55c0.02,0.19 0.06,0.36 0.13,0.5 0.1,0.22 0.27,0.39 0.46,0.66 0.19,0.27 0.39,0.65 0.6,1.35 0.21,0.7 0.41,1.72 0.43,2.58 0.02,0.86 -0.15,1.55 -0.29,2.25 -0.14,0.7 -0.25,1.42 -0.24,2.24 0.01,0.82 0.13,1.74 0.24,2.9 0.11,1.16 0.21,2.56 0.18,3.53 -0.03,0.97 -0.19,1.52 -0.4,1.96 -0.21,0.44 -0.48,0.77 -0.82,0.95 -0.34,0.18 -0.75,0.22 -1.51,0.22 -0.76,0.01 -1.87,-0.02 -2.56,-0.16 -0.7,-0.14 -0.99,-0.39 -1.15,-0.69 -0.16,-0.29 -0.2,-0.62 -0.21,-0.92 -0.01,-0.3 0.02,-0.58 -0.04,-0.95 -0.06,-0.36 -0.21,-0.81 -0.26,-1.47 -0.05,-0.66 0,-1.52 0.08,-2.31 0.08,-0.79 0.19,-1.51 0.25,-2.18 0.06,-0.67 0.07,-1.29 -0.07,-2.12 -0.15,-0.83 -0.45,-1.88 -0.57,-2.87 -0.12,-1 -0.06,-1.94 0.18,-2.78 0.24,-0.83 0.67,-1.55 0.89,-2 0.17,-0.34 0.21,-0.53 0.22,-0.72 0.19,0.06 0.39,0.11 0.61,0.16 0.12,0.03 0.25,0.05 0.38,0.07 0.14,0.02 0.28,0.04 0.44,0.05 0.14,0.01 0.3,0.02 0.46,0.02 0.17,0 0.35,0 0.53,-0 0.19,-0 0.38,-0.01 0.55,-0.02 0.18,-0.01 0.35,-0.02 0.5,-0.04 0.14,-0.01 0.26,-0.03 0.36,-0.05 0.1,-0.02 0.2,-0.04 0.28,-0.06 0.15,-0.04 0.26,-0.08 0.38,-0.12z"/>
  </g>
 </g>
</svg>
