<?xml version="1.0" encoding="UTF-8"?>
<!DOCTYPE svg PUBLIC "-//W3C//DTD SVG 1.1//EN" "http://www.w3.org/Graphics/SVG/1.1/DTD/svg11.dtd">
<!-- Creator: CorelDRAW -->
<svg xmlns="http://www.w3.org/2000/svg" xml:space="preserve" width="0.332831in" height="0.333339in" style="shape-rendering:geometricPrecision; text-rendering:geometricPrecision; image-rendering:optimizeQuality; fill-rule:evenodd; clip-rule:evenodd"
viewBox="0 0 0.049645 0.0497207"
 xmlns:xlink="http://www.w3.org/1999/xlink">
 <defs>
  <style type="text/css">
   <![CDATA[
    .fil0 {fill:#394241}
   ]]>
  </style>
 </defs>
 <g id="Layer_x0020_1">
  <metadata id="CorelCorpID_0Corel-Layer"/>
  <g id="_284365784">
   <path id="_284366888" class="fil0" d="M0.00751789 0.0245838l1.17449e-006 5.52009e-005 -4.8154e-005 1.82045e-005c-0.000146811,5.22647e-005 -0.000294209,0.000105704 -0.00049211,0.000155032 -9.74824e-005,2.4077e-005 -0.000207297,4.75667e-005 -0.000335316,6.92947e-005 -0.000129781,2.23152e-005 -0.000276592,4.28688e-005 -0.000446305,6.10733e-005 -0.000185569,1.9379e-005 -0.000399913,3.69963e-005 -0.000629525,5.05029e-005 -0.000225501,1.35066e-005 -0.000462748,2.29025e-005 -0.000698232,2.81877e-005 -0.000223152,4.69795e-006 -0.000449241,5.28519e-006 -0.000667108,1.17449e-006 -0.000199075,-4.1107e-006 -0.000395215,-1.23321e-005 -0.000581371,-2.58387e-005 -0.000198488,-1.40938e-005 -0.000380534,-3.46474e-005 -0.000550247,-5.98988e-005 -0.000168539,-2.46642e-005 -0.000324746,-5.40264e-005 -0.000472731,-8.6912e-005 -0.000153858,-3.34729e-005 -0.000292447,-6.87075e-005 -0.00042399,-0.000104529 -0.000126257,-3.46474e-005 -0.000263672,-7.51671e-005 -0.000401087,-0.000115687l-4.16943e-005 -1.23321e-005c-2.64259e-005,-0.000361155 -8.10396e-005,-0.000843869 -8.10396e-005,-0.00151802 0,-0.000722896 6.2835e-005,-0.00166542 0.000156794,-0.00218396 1.29194e-005,-6.81202e-005 2.58387e-005,-0.000129194 3.99325e-005,-0.00018322 0.000244293,-0.000122147 0.000489174,-0.000232548 0.000740514,-0.000257213 0.000138002,-1.40938e-005 0.000281877,-2.93622e-006 0.000407547,2.4077e-005 0.000129194,2.76004e-005 0.000234897,6.9882e-005 0.000291273,0.000116861l2.93622e-006 1.76173e-006c2.58387e-005,2.29025e-005 3.40601e-005,4.46305e-005 3.11239e-005,6.45968e-005 -5.28519e-006,3.46474e-005 -2.99494e-005,7.45799e-005 -6.04861e-005,0.000110989l0 5.87243e-007 -4.69795e-006 5.87243e-006c-2.70132e-005,3.17111e-005 -6.2835e-005,6.45968e-005 -9.80696e-005,9.68951e-005 -7.04692e-005,6.45968e-005 -0.000136828,0.000126257 -0.000179696,0.000217867 -3.81708e-005,8.22141e-005 -4.99157e-005,0.000180284 -2.58387e-005,0.000280702 2.05535e-005,8.51503e-005 6.7533e-005,0.000171475 0.000145636,0.000249578 7.57544e-005,7.63416e-005 0.00018322,0.000145636 0.000337665,0.000206122 0.000145049,5.63754e-005 0.000334141,0.000105704 0.000583133,0.000146811 0.000261911,4.28688e-005 0.000593116,7.63416e-005 0.000944287,8.86737e-005 0.000300669,1.05704e-005 0.000616605,4.69795e-006 0.000914338,-2.46642e-005 0.000534391,-5.34391e-005 0.00100771,-0.000182633 0.00138002,-0.000284226l7.69289e-005 -2.11408e-005c-1.52683e-005,2.76004e-005 -2.70132e-005,5.87243e-005 -3.58218e-005,9.39589e-005 -7.04692e-005,0.000290685 0.00010218,0.000856201 0.00017265,0.00136652 7.10564e-005,0.000510902 3.93453e-005,0.000966602 4.75667e-005,0.0013671zm-0.00549484 -0.00421112c8.80865e-005,-8.9261e-005 0.000208471,-0.000142113 0.000381121,-0.000203186 0.00037701,-0.000133891 0.00100536,-0.000306541 0.00168069,-0.000432211 0.000675917,-0.00012567 0.00139823,-0.000204361 0.00194847,-0.00017265 0.00054966,3.11239e-005 0.00092667,0.00017265 0.00109932,0.00042399 0.00017265,0.00025134 0.000141526,0.000612495 0.000141526,0.000832711 0,0.000219629 3.11239e-005,0.00029832 0.000156794,0.00035352 0.00012567,5.46136e-005 0.000345886,8.63248e-005 0.000455701,0.000140938 2.64259e-005,1.35066e-005 4.63922e-005,2.76004e-005 5.93116e-005,4.28688e-005 -0.000148573,2.58387e-005 -0.00031946,6.10733e-005 -0.000540264,0.00011921 -5.81371e-005,1.52683e-005 -0.000134479,3.58218e-005 -0.000214931,5.75498e-005 -0.000362329,9.92441e-005 -0.00082449,0.000225501 -0.00133891,0.000276592 -0.000286575,2.81877e-005 -0.000591354,3.40601e-005 -0.000882039,2.4077e-005 -0.000338252,-1.17449e-005 -0.0006583,-4.46305e-005 -0.000911989,-8.57375e-005 -0.000229612,-3.81708e-005 -0.000402262,-8.28013e-005 -0.000531455,-0.000133304 -0.00011921,-4.63922e-005 -0.000198488,-9.68951e-005 -0.000251927,-0.000150334 -4.40432e-005,-4.40432e-005 -6.92947e-005,-8.86737e-005 -7.92778e-005,-0.000130368 -1.05704e-005,-4.28688e-005 -5.28519e-006,-8.33885e-005 9.98314e-006,-0.000116861 2.11408e-005,-4.5805e-005 7.04692e-005,-9.10227e-005 0.000122147,-0.000138589 3.81708e-005,-3.52346e-005 7.75161e-005,-7.16437e-005 0.000118623,-0.000119798l5.87243e-006 -7.04692e-006 1.17449e-006 -5.87243e-007c5.57881e-005,-6.7533e-005 0.000102768,-0.000148573 0.000115687,-0.000236072 1.46811e-005,-0.000101593 -1.40938e-005,-0.000203186 -0.000117449,-0.000291273l-4.69795e-006 -4.1107e-006c-8.63248e-005,-7.16437e-005 -0.000231374,-0.000132717 -0.000399325,-0.000168539 -0.000148573,-3.17111e-005 -0.000318873,-4.46305e-005 -0.000484476,-2.81877e-005 -0.000188505,1.87918e-005 -0.00036644,7.51671e-005 -0.000539677,0.000147398zm0.00551715 0.00459224c2.64259e-005,0.000241944 7.69289e-005,0.000459224 0.00016619,0.000647729 0.000133304,0.000283051 0.00035352,0.00050268 0.000596639,0.000856201 0.000243706,0.00035352 0.000510902,0.000840345 0.00077751,0.00174353 0.000267196,0.000903767 0.000534391,0.0022233 0.000557881,0.00333084 2.34897e-005,0.00110754 -0.000196139,0.00200309 -0.00037701,0.0029139 -0.000180871,0.000911402 -0.000321809,0.00183807 -0.000314175,0.00289863 7.63416e-006,0.00106056 0.000165015,0.00225443 0.000306541,0.00375483 0.000140938,0.00149982 0.000266608,0.00330677 0.00022785,0.00456347 -3.93453e-005,0.0012567 -0.000243706,0.00196374 -0.000518536,0.00252926 -0.00027483,0.000565515 -0.000620716,0.000989505 -0.00106056,0.00122558 -0.000439845,0.000235485 -0.000974237,0.000282464 -0.00195611,0.000290685 -0.000981871,7.63416e-006 -0.00241122,-2.4077e-005 -0.0033144,-0.000204361 -0.00090318,-0.000180871 -0.00128019,-0.000510902 -0.00149277,-0.000887912 -0.000211995,-0.00037701 -0.000258974,-0.000801 -0.000266608,-0.00119387 -8.22141e-006,-0.000392866 2.34897e-005,-0.00075402 -5.52009e-005,-0.00122499 -7.86906e-005,-0.000471556 -0.000267196,-0.00105293 -0.000330031,-0.00190091 -6.2835e-005,-0.000848567 0,-0.00196374 0.00010218,-0.00298496 0.00010218,-0.00102122 0.000243706,-0.00194789 0.000322397,-0.00281231 7.81034e-005,-0.000863835 9.39589e-005,-0.00166483 -9.45462e-005,-0.00274125 -0.000188505,-0.00107583 -0.000581371,-0.00242708 -0.000738165,-0.00371549 -0.000157381,-0.00128782 -7.86906e-005,-0.0025134 0.000235485,-0.00358982 0.000314175,-0.00107583 0.000863835,-0.0020025 0.00114689,-0.00258387 0.000213757,-0.000439258 0.00027483,-0.000681202 0.000281877,-0.000931955 0.000251927,7.39927e-005 0.000505616,0.000146811 0.000788081,0.000209059 0.000153858,3.34729e-005 0.000317111,6.45968e-005 0.000493872,9.04355e-005 0.000175586,2.58387e-005 0.000365265,4.75667e-005 0.000573149,6.22478e-005 0.00018322,1.35066e-005 0.000385232,2.1728e-005 0.000597226,2.58387e-005 0.000222565,4.1107e-006 0.000452177,3.52346e-006 0.000680028,-1.17449e-006 0.000246642,-5.28519e-006 0.000487412,-1.52683e-005 0.000710564,-2.81877e-005 0.00023431,-1.40938e-005 0.000453352,-3.17111e-005 0.000643619,-5.22647e-005 0.000180284,-1.87918e-005 0.000333554,-4.05198e-005 0.000467446,-6.2835e-005 0.000135653,-2.34897e-005 0.000253102,-4.87412e-005 0.000357631,-7.45799e-005 0.000189092,-4.75667e-005 0.000338839,-9.92441e-005 0.000485063,-0.000151509z"/>
   <path id="_284366600" class="fil0" d="M0.026948 0.0153535l1.76173e-006 7.57544e-005 -6.57712e-005 2.46642e-005c-0.000200837,7.16437e-005 -0.000402262,0.000143875 -0.000672981,0.000211408 -0.000133304,3.34729e-005 -0.000283051,6.57712e-005 -0.00045805,9.51334e-005 -0.000177347,3.05367e-005 -0.000378772,5.87243e-005 -0.000610733,8.33885e-005 -0.000253689,2.70132e-005 -0.000546724,5.05029e-005 -0.000860311,6.92947e-005 -0.00030889,1.82045e-005 -0.000632461,3.17111e-005 -0.000954858,3.81708e-005 -0.000305367,6.45968e-006 -0.000614256,7.63416e-006 -0.000911989,1.76173e-006 -0.000272481,-5.28519e-006 -0.000540264,-1.64428e-005 -0.00079454,-3.52346e-005 -0.000271894,-1.9379e-005 -0.000520885,-4.75667e-005 -0.000752259,-8.16268e-005 -0.000230787,-3.40601e-005 -0.000444543,-7.39927e-005 -0.000646555,-0.000118623 -0.000210233,-4.63922e-005 -0.000399913,-9.45462e-005 -0.000579609,-0.000143287 -0.00017265,-4.75667e-005 -0.000360567,-0.000102768 -0.000548485,-0.000157968l-5.69626e-005 -1.64428e-005c-3.64091e-005,-0.000494459 -0.000110989,-0.00115452 -0.000110989,-0.00207649 0,-0.000987743 8.57375e-005,-0.00227616 0.000214931,-0.00298496 1.70301e-005,-9.33717e-005 3.46474e-005,-0.00017676 5.40264e-005,-0.00025134 0.000333554,-0.000166777 0.00066887,-0.000317699 0.00101299,-0.000351759 0.000188505,-1.87918e-005 0.000384644,-3.52346e-006 0.000557294,3.34729e-005 0.000176173,3.75836e-005 0.000320635,9.57207e-005 0.000398151,0.000159143l3.52346e-006 2.93622e-006c3.58218e-005,3.11239e-005 4.63922e-005,6.10733e-005 4.22815e-005,8.86737e-005 -6.45968e-006,4.69795e-005 -4.1107e-005,0.000101593 -8.28013e-005,0.000151509l5.87243e-007 5.87243e-007 -6.45968e-006 8.22141e-006c-3.69963e-005,4.28688e-005 -8.63248e-005,8.80865e-005 -0.000133891,0.00013213 -9.63079e-005,8.86737e-005 -0.000187918,0.000173237 -0.000245468,0.000297732 -5.28519e-005,0.000113338 -6.87075e-005,0.000246642 -3.58218e-005,0.000384057 2.81877e-005,0.000116274 9.21972e-005,0.00023431 0.000198488,0.000341188 0.000104529,0.000103942 0.00025134,0.000199075 0.000462748,0.000281877 0.000197314,7.69289e-005 0.000456288,0.000145049 0.000796889,0.000200837 0.000357631,5.87243e-005 0.000810983,0.000104529 0.00129076,0.000120972 0.000411658,1.40938e-005 0.000842694,6.45968e-006 0.00125024,-3.40601e-005 0.000730531,-7.22309e-005 0.00137826,-0.000249578 0.00188681,-0.000388168l0.000105117 -2.87749e-005c-2.05535e-005,3.75836e-005 -3.69963e-005,8.04523e-005 -4.87412e-005,0.000128606 -9.68951e-005,0.000396976 0.000139177,0.00117038 0.000236072,0.00186861 9.68951e-005,0.000697645 5.34391e-005,0.00132071 6.45968e-005,0.00186861zm-0.0075126 -0.00575733c0.000120972,-0.000122147 0.000284813,-0.000194378 0.000521472,-0.000278353 0.000515012,-0.000182633 0.00137415,-0.000418704 0.00229788,-0.000590767 0.000923734,-0.000171475 0.00191148,-0.000278941 0.00266315,-0.000236072 0.000751671,4.28688e-005 0.00126727,0.000236072 0.00150393,0.000580196 0.000236072,0.000343537 0.000193203,0.000837409 0.000193203,0.00113808 0,0.000300669 4.28688e-005,0.000408134 0.000214931,0.000483301 0.000171475,7.51671e-005 0.000472144,0.000118036 0.000622478,0.000193203 3.58218e-005,1.82045e-005 6.34223e-005,3.75836e-005 8.10396e-005,5.87243e-005 -0.000203186,3.46474e-005 -0.000436322,8.33885e-005 -0.000738165,0.000162079 -8.04523e-005,2.11408e-005 -0.000184394,4.93284e-005 -0.000294209,7.92778e-005 -0.000495633,0.000135653 -0.00112692,0.000308303 -0.00183044,0.000378185 -0.000392279,3.87581e-005 -0.000808634,4.63922e-005 -0.0012062,3.22984e-005 -0.00046216,-1.58556e-005 -0.000900244,-6.04861e-005 -0.00124672,-0.000116861 -0.000314175,-5.16774e-005 -0.00054966,-0.000112751 -0.000727007,-0.000182045 -0.000162666,-6.34223e-005 -0.000271306,-0.000132717 -0.000344125,-0.000205535 -5.98988e-005,-5.98988e-005 -9.45462e-005,-0.000121559 -0.00010864,-0.000178522 -1.40938e-005,-5.81371e-005 -7.63416e-006,-0.000113338 1.40938e-005,-0.00015973 2.87749e-005,-6.22478e-005 9.57207e-005,-0.000124496 0.00016619,-0.000189092 5.28519e-005,-4.8154e-005 0.000106878,-9.80696e-005 0.000162666,-0.000163841l8.22141e-006 -9.98314e-006 1.76173e-006 -5.87243e-007c7.63416e-005,-9.21972e-005 0.000140351,-0.000202599 0.000157968,-0.000322397 1.99663e-005,-0.000139177 -1.9379e-005,-0.000277766 -0.000160905,-0.000398151l-6.45968e-006 -5.87243e-006c-0.000118036,-9.80696e-005 -0.000316524,-0.000181458 -0.000545549,-0.000230787 -0.000203186,-4.28688e-005 -0.000435735,-6.10733e-005 -0.00066241,-3.87581e-005 -0.0002578,2.58387e-005 -0.000501506,0.000102768 -0.000738165,0.000202012zm0.00754314 0.00627822c3.58218e-005,0.000331205 0.000105117,0.000627763 0.000227263,0.000885563 0.000182633,0.000386993 0.000483301,0.000687662 0.000815681,0.00117096 0.000332967,0.000483301 0.000698232,0.00114924 0.0010635,0.00238421 0.000365265,0.00123497 0.000729943,0.00303898 0.000762242,0.00455348 3.22984e-005,0.00151391 -0.00026837,0.00273832 -0.000515012,0.00398386 -0.000247229,0.00124613 -0.000440432,0.0025134 -0.000429862,0.00396272 1.05704e-005,0.0014499 0.000225501,0.00308244 0.000418704,0.00513368 0.000193203,0.00205124 0.000365265,0.00452119 0.000311826,0.00623946 -5.40264e-005,0.00171827 -0.000332967,0.00268488 -0.000708803,0.00345769 -0.000375836,0.000773399 -0.000848567,0.0013536 -0.0014499,0.00167541 -0.000601337,0.000322397 -0.00133187,0.000386993 -0.00267431,0.000397564 -0.00134244,1.05704e-005 -0.00329678,-3.22984e-005 -0.00453176,-0.000279528 -0.00123497,-0.000246642 -0.00175057,-0.000697645 -0.00204067,-0.00121324 -0.000289511,-0.0005156 -0.000354108,-0.00109521 -0.000364678,-0.00163254 -1.11576e-005,-0.00053674 3.17111e-005,-0.00103061 -7.51671e-005,-0.00167541 -0.000107466,-0.000644206 -0.000365265,-0.00143875 -0.000451003,-0.00259855 -8.63248e-005,-0.00115981 0,-0.00268488 0.000139177,-0.00408134 0.000139764,-0.00139588 0.000332967,-0.00266315 0.000440432,-0.00384468 0.000107466,-0.00118095 0.000128606,-0.00227616 -0.000128606,-0.00374779 -0.0002578,-0.00147104 -0.000795127,-0.00331851 -0.00100947,-0.00507965 -0.000214931,-0.00176114 -0.000107466,-0.00343655 0.000321809,-0.00490759 0.000429862,-0.00147163 0.00118153,-0.0027389 0.00156794,-0.00353344 0.00029186,-0.000600163 0.000375836,-0.000930781 0.000385232,-0.00127432 0.000344712,0.000101593 0.000691773,0.000201424 0.00107759,0.000285987 0.000210233,4.63922e-005 0.000433386,8.80865e-005 0.00067533,0.000123908 0.000240183,3.52346e-005 0.000499744,6.45968e-005 0.00078397,8.51503e-005 0.000250166,1.82045e-005 0.000526757,2.93622e-005 0.000816268,3.52346e-005 0.000304192,5.87243e-006 0.000618367,4.69795e-006 0.000929606,-1.76173e-006 0.000337078,-7.04692e-006 0.000666521,-2.05535e-005 0.0009713,-3.87581e-005 0.000320635,-1.87918e-005 0.000620129,-4.28688e-005 0.000880865,-7.04692e-005 0.000245468,-2.64259e-005 0.000455701,-5.57881e-005 0.000638333,-8.6912e-005 0.000185569,-3.17111e-005 0.000345886,-6.57712e-005 0.000488586,-0.000101593 0.000259562,-6.45968e-005 0.000463922,-0.000135653 0.000663585,-0.000207297z"/>
   <path id="_284366144" class="fil0" d="M0.0461462 0.00828542l2.34897e-006 9.10227e-005 -7.92778e-005 2.99494e-005c-0.000242531,8.6912e-005 -0.000485063,0.000173824 -0.00081157,0.000255451 -0.000160317,3.99325e-005 -0.000341188,7.86906e-005 -0.000552009,0.000114512 -0.000214344,3.64091e-005 -0.000456288,7.04692e-005 -0.000736403,0.000100419 -0.000305954,3.22984e-005 -0.000658887,6.10733e-005 -0.00103707,8.33885e-005 -0.000372312,2.23152e-005 -0.000762829,3.81708e-005 -0.001151,4.63922e-005 -0.000368789,7.63416e-006 -0.000740514,8.80865e-006 -0.00110049,1.76173e-006 -0.000327682,-6.45968e-006 -0.000651253,-1.99663e-005 -0.000957794,-4.22815e-005 -0.000327095,-2.34897e-005 -0.000627176,-5.75498e-005 -0.000906704,-9.86569e-005 -0.000278353,-4.1107e-005 -0.000536153,-8.9261e-005 -0.000779859,-0.0001427 -0.000253102,-5.57881e-005 -0.000482127,-0.000113925 -0.000698232,-0.000173237 -0.000208471,-5.69626e-005 -0.000435147,-0.000123321 -0.000661823,-0.000190267l-6.81202e-005 -1.99663e-005c-4.40432e-005,-0.000596052 -0.000133891,-0.00139177 -0.000133891,-0.00250283 0,-0.00119152 0.000103355,-0.00274478 0.000258974,-0.0035998 2.05535e-005,-0.000112163 4.16943e-005,-0.000212582 6.45968e-005,-0.00030243 0.000402849,-0.000201424 0.000806872,-0.000382883 0.00122147,-0.00042399 0.00022785,-2.29025e-005 0.000464509,-4.1107e-006 0.000672394,3.99325e-005 0.000211995,4.52177e-005 0.000386993,0.0001151 0.000479778,0.000192029l4.69795e-006 4.1107e-006c4.28688e-005,3.69963e-005 5.57881e-005,7.34054e-005 5.05029e-005,0.000106291 -7.63416e-006,5.69626e-005 -4.93284e-005,0.000122147 -9.92441e-005,0.00018322l5.87243e-007 0 -8.22141e-006 9.98314e-006c-4.46305e-005,5.22647e-005 -0.000103942,0.000106878 -0.000161492,0.00015973 -0.000115687,0.000106878 -0.000226089,0.000208471 -0.000295971,0.000358806 -6.34223e-005,0.00013624 -8.28013e-005,0.000297732 -4.28688e-005,0.000462748 3.40601e-005,0.000140938 0.000110989,0.000283051 0.000239595,0.000411658 0.00012567,0.00012567 0.00030243,0.000240183 0.000557294,0.000339427 0.000238421,9.33717e-005 0.000550247,0.000174999 0.00096073,0.000242531 0.000431624,7.04692e-005 0.00097776,0.000126257 0.00155619,0.000146224 0.000496221,1.70301e-005 0.00101652,7.63416e-006 0.00150745,-4.1107e-005 0.000880865,-8.74993e-005 0.0016619,-0.000301256 0.00227498,-0.00046862l0.000126845 -3.46474e-005c-2.46642e-005,4.5805e-005 -4.46305e-005,9.68951e-005 -5.87243e-005,0.000155032 -0.000116861,0.000479191 0.000167952,0.00141115 0.000284813,0.00225267 0.000116274,0.000842107 6.45968e-005,0.00159319 7.75161e-005,0.00225325zm-0.00905764 -0.00694122c0.000145636,-0.000147398 0.000343537,-0.00023431 0.00062835,-0.000335316 0.000621891,-0.000220216 0.00165779,-0.000505029 0.0027712,-0.000712326 0.00111341,-0.000207297 0.00230434,-0.00033649 0.00321105,-0.000284813 0.000906116,5.16774e-005 0.00152742,0.000284813 0.00181282,0.000699407 0.000284813,0.000414007 0.000232548,0.00100947 0.000232548,0.00137239 0,0.000362329 5.22647e-005,0.00049211 0.000258974,0.000582545 0.000207297,9.04355e-005 0.000569626,0.000142113 0.000751084,0.000233136 4.3456e-005,2.1728e-005 7.63416e-005,4.52177e-005 9.80696e-005,7.04692e-005 -0.00024488,4.22815e-005 -0.000526757,0.000100419 -0.000890261,0.000195552 -9.68951e-005,2.52515e-005 -0.000221978,5.93116e-005 -0.000354695,9.57207e-005 -0.000597814,0.000163254 -0.00135888,0.000371138 -0.00220745,0.000455701 -0.000472144,4.69795e-005 -0.000974237,5.57881e-005 -0.00145401,3.93453e-005 -0.000557294,-1.9379e-005 -0.00108523,-7.28182e-005 -0.00150276,-0.000141526 -0.000379359,-6.22478e-005 -0.000662998,-0.00013624 -0.000876167,-0.000219042 -0.000196727,-7.69289e-005 -0.000327682,-0.00015973 -0.000415181,-0.000247817 -7.28182e-005,-7.22309e-005 -0.000114512,-0.000146224 -0.000130955,-0.000215518 -1.70301e-005,-6.9882e-005 -9.39589e-006,-0.000136828 1.64428e-005,-0.000192616 3.52346e-005,-7.51671e-005 0.000115687,-0.000149747 0.000200837,-0.00022785 6.34223e-005,-5.81371e-005 0.000128606,-0.000118623 0.000196139,-0.000197314l9.98314e-006 -1.23321e-005 1.76173e-006 -5.87243e-007c9.21972e-005,-0.000111576 0.000169126,-0.00024488 0.000190267,-0.000388755 2.4077e-005,-0.000167364 -2.29025e-005,-0.000334729 -0.00019379,-0.000480365l-7.63416e-006 -7.04692e-006c-0.000142113,-0.000117449 -0.000381708,-0.000218455 -0.000657712,-0.000277766 -0.00024488,-5.22647e-005 -0.000525583,-7.34054e-005 -0.000798651,-4.63922e-005 -0.000311239,3.11239e-005 -0.000604861,0.000123321 -0.000890261,0.000243119zm0.00909464 0.00756898c4.3456e-005,0.000399913 0.000126845,0.000756957 0.000273655,0.0010682 0.000220216,0.000466271 0.000582545,0.0008286 0.00098422,0.00141173 0.000401087,0.000582545 0.00084152,0.00138531 0.00128195,0.00287397 0.000439845,0.00148925 0.000880278,0.0036644 0.000919036,0.00549014 3.87581e-005,0.00182574 -0.000323571,0.00330148 -0.000621303,0.00480365 -0.000297732,0.00150217 -0.000530868,0.00302959 -0.000517949,0.00477781 1.29194e-005,0.00174764 0.000271894,0.00371608 0.000505029,0.00618896 0.000233136,0.00247288 0.000439845,0.00545138 0.000375248,0.00752259 -6.45968e-005,0.00207179 -0.000401087,0.00323689 -0.000854439,0.00416943 -0.000453352,0.000931955 -0.00102298,0.00163136 -0.00174822,0.00201953 -0.000724658,0.000388755 -0.00160552,0.000466271 -0.00322397,0.000479191 -0.00161844,1.29194e-005 -0.00397505,-3.87581e-005 -0.00546371,-0.00033649 -0.00148925,-0.000297732 -0.00211055,-0.00084152 -0.00245996,-0.00146282 -0.000349997,-0.000621891 -0.000427513,-0.00132071 -0.000440432,-0.00196844 -1.29194e-005,-0.000647142 3.87581e-005,-0.00124261 -9.04355e-005,-0.00201953 -0.000129781,-0.000776923 -0.000440432,-0.0017353 -0.000543787,-0.00313353 -0.000103942,-0.00139823 0,-0.00323689 0.000167952,-0.00492051 0.000168539,-0.00168304 0.000401674,-0.00321105 0.000530868,-0.00463511 0.000129781,-0.00142406 0.000155619,-0.00274478 -0.000155032,-0.00451884 -0.000311239,-0.00177406 -0.000958381,-0.00400089 -0.00121736,-0.00612436 -0.000258974,-0.00212347 -0.000129194,-0.004143 0.000388755,-0.00591706 0.000517361,-0.00177406 0.00142406,-0.00330148 0.00189034,-0.00425986 0.000351759,-0.000723484 0.000452765,-0.00112222 0.000464509,-0.00153623 0.000415181,0.000121559 0.000833885,0.000242531 0.00129898,0.000344712 0.000253689,5.57881e-005 0.000522647,0.000106291 0.000813919,0.00014916 0.000290098,4.28688e-005 0.000602512,7.81034e-005 0.000945462,0.000102768 0.000301843,2.1728e-005 0.00063481,3.52346e-005 0.00098422,4.22815e-005 0.00036644,7.04692e-006 0.000745212,5.87243e-006 0.00112046,-1.76173e-006 0.00040696,-8.80865e-006 0.000803936,-2.46642e-005 0.00117155,-4.69795e-005 0.000385819,-2.23152e-005 0.000747561,-5.16774e-005 0.00106115,-8.51503e-005 0.000296558,-3.17111e-005 0.00054966,-6.69457e-005 0.000769876,-0.000104529 0.00022374,-3.81708e-005 0.000416943,-7.92778e-005 0.000589592,-0.000122734 0.000312413,-7.81034e-005 0.000559056,-0.000163841 0.000799825,-0.000250166z"/>
  </g>
 </g>
</svg>
